<svg width="1500" height="938" viewBox="0 0 1500 938" fill="none" xmlns="http://www.w3.org/2000/svg">
<path d="M1500 937.666H0V0.16599H1500V937.666Z" fill="white"/>
<path d="M251.15 814.858C213.881 769.784 189.438 711.795 178.863 654.678C157.749 540.636 198.332 416.977 276.501 332.08C341.538 261.445 437.409 236.569 530.441 233.8C570.646 232.605 610.821 235.249 650.806 239.276C676.573 241.87 703.067 246.78 729.04 245.943C753.631 245.149 769.207 225.526 782.853 207.368C804.902 178.015 826.53 149.086 855.51 126.035C934.217 63.4311 1055.37 36.1336 1148.65 81.1728C1192.01 102.112 1225.48 138.731 1242.23 183.897C1263.56 241.414 1257.85 305.258 1242.14 363.38C1230.67 405.985 1221.98 451.722 1236.99 494.675C1252.59 539.351 1291.65 566.773 1320 602.633C1369.92 665.768 1356.3 745.994 1332.24 817.221L251.15 814.858" fill="#E7F3FF"/>
<path d="M419.441 602.805C419.441 602.805 482.597 635.617 475.767 646.994C468.933 658.366 408.027 605.35 408.027 605.35C408.027 605.35 343.298 637.197 329.494 658.788C329.494 658.788 408.118 669.227 398.696 678.569C389.274 687.911 306.955 680.852 306.955 680.852C306.955 680.852 256.101 725.674 280.573 758.467C305.046 791.266 331.25 789.864 339.287 783.616C347.325 777.372 385.789 727.014 391.247 733.389C396.705 739.76 380.651 781.553 360.094 795.757C360.094 795.757 427.493 815.168 446.237 785.946C464.981 756.724 454.752 735.1 466.664 717.25C478.575 699.405 492.759 690.658 490.688 702.63C488.616 714.602 463.219 740.697 464.111 763.361C465.002 786.025 463.488 802.619 488.475 781.432C513.469 760.249 545.784 712.389 533.475 688.089C532.936 687.025 532.425 686.017 531.933 685.047C533.109 686.857 533.475 688.089 533.475 688.089C539.845 685.563 558.281 688.741 572.03 691.694C574.261 692.332 577.463 693.077 581.911 693.944H581.916C583.866 694.413 585.455 694.811 586.561 695.092C615.816 703.661 650.569 738.55 650.569 738.55L656.25 734.289C626.873 691.928 578.583 687.916 578.583 687.916C542.667 681.7 521.161 663.785 521.161 663.785C521.161 663.785 532.069 593.894 477.389 587.603C477.389 587.603 440.506 587.95 419.441 602.805" fill="#C5DCFD"/>
<path d="M500.123 369.761C500.123 369.761 510.319 424.31 500.048 425.58C489.783 426.851 493.073 363.977 493.073 363.977C493.073 363.977 442.42 339.532 422.528 341.43C422.528 341.43 453.896 394.722 443.632 393.429C433.369 392.13 398.152 338.186 398.152 338.186C398.152 338.186 346.195 328.497 337.814 359.28C329.433 390.068 342.886 405.485 350.583 407.421C358.279 409.352 407.682 408.776 406.391 415.193C405.099 421.605 371.723 431.829 353.124 426.03C353.124 426.03 373.588 476.74 400.539 474.208C427.489 471.682 435.852 455.008 452.535 453.747C469.219 452.487 481.401 456.996 473.058 461.472C464.709 465.954 436.483 462.897 422.994 474.335C409.506 485.772 398.589 492.813 423.604 497.979C448.62 503.144 493.537 499.999 502.542 480.762C502.936 479.922 503.311 479.121 503.672 478.357C503.123 479.946 502.542 480.762 502.542 480.762C507.155 483.462 514.064 496.31 518.855 506.168C519.534 507.846 520.617 510.166 522.22 513.321C522.872 514.746 523.392 515.908 523.748 516.724C532.542 538.807 527.817 576.907 527.817 576.907L533.161 578.351C545.058 539.96 524.32 508.38 524.32 508.38C510.881 483.34 511.551 461.524 511.551 461.524C511.551 461.524 559.706 434.641 537.3 398.041C537.3 398.041 519.365 375.56 500.123 369.761" fill="#C5DCFD"/>
<path d="M1120.45 230.628C1107.17 181.593 1024.43 196.915 1024.43 196.915C1024.43 196.915 968.24 282.724 951.894 284.768C935.556 286.811 985.607 202.028 985.607 202.028C953.939 198.96 873.243 237.778 873.243 237.778C873.243 237.778 878.348 337.888 862.003 335.844C845.657 333.801 862.003 246.971 862.003 246.971C831.357 256.165 802.757 291.919 802.757 291.919C766.999 350.145 843.613 393.049 843.613 393.049C843.613 393.049 844.635 427.781 823.185 467.62V467.621C823.185 467.621 818.344 474.976 813.419 487.478H821.773C822.461 485.237 823.212 483.076 824.047 480.994C824.047 480.976 824.047 480.967 824.061 480.957C824.075 480.924 824.089 480.896 824.096 480.868C824.666 479.574 825.494 477.737 826.516 475.501C826.516 475.496 826.516 475.496 826.523 475.491C826.523 475.487 826.53 475.487 826.53 475.482C829.076 470.485 830.801 466.794 831.893 464.129C831.9 464.12 831.9 464.112 831.907 464.104C839.551 448.418 850.568 427.981 857.913 423.695C857.913 423.695 856.995 422.394 856.132 419.863C856.703 421.085 857.294 422.359 857.913 423.695C872.22 454.341 943.729 459.448 983.562 451.276C1023.4 443.103 1006.04 431.867 984.585 413.63C963.134 395.392 918.188 400.2 904.911 393.049C891.626 385.898 911.038 378.748 937.594 380.791C964.157 382.834 977.442 409.393 1020.34 413.48C1063.24 417.566 1095.93 336.865 1095.93 336.865C1066.31 346.059 1013.19 329.715 1011.15 319.5C1009.1 309.284 1087.76 310.306 1100.02 307.241C1112.27 304.177 1133.73 279.66 1120.45 230.628" fill="#C5DCFD"/>
<path d="M1231.77 426.198H1116.04C1106.81 426.198 1099.27 433.746 1099.27 442.971V493.742C1099.27 502.217 1106.2 509.15 1114.68 509.15H1117.65L1112.07 532.699L1147.07 509.15H1232.77C1241.98 509.15 1249.52 501.608 1249.52 492.392V443.956C1249.52 434.19 1241.53 426.198 1231.77 426.198" fill="#A3C4E5"/>
<path d="M1234.87 463.051H1114.21C1112.56 463.051 1111.22 461.706 1111.22 460.063C1111.22 458.42 1112.56 457.075 1114.21 457.075H1234.87C1236.52 457.075 1237.87 458.42 1237.87 460.063C1237.87 461.706 1236.52 463.051 1234.87 463.051Z" fill="#E7F3FF"/>
<path d="M1234.87 476.425H1114.21C1112.56 476.425 1111.22 475.08 1111.22 473.44C1111.22 471.794 1112.56 470.449 1114.21 470.449H1234.87C1236.52 470.449 1237.87 471.794 1237.87 473.44C1237.87 475.08 1236.52 476.425 1234.87 476.425Z" fill="#E7F3FF"/>
<path d="M1234.87 489.805H1114.21C1112.56 489.805 1111.22 488.459 1111.22 486.813C1111.22 485.173 1112.56 483.828 1114.21 483.828H1234.87C1236.52 483.828 1237.87 485.173 1237.87 486.813C1237.87 488.459 1236.52 489.805 1234.87 489.805Z" fill="#E7F3FF"/>
<path d="M1169.13 442.276H1117.91C1115.96 442.276 1114.35 440.674 1114.35 438.718C1114.35 436.761 1115.96 435.161 1117.91 435.161H1169.13C1171.09 435.161 1172.69 436.761 1172.69 438.718C1172.69 440.674 1171.09 442.276 1169.13 442.276Z" fill="#E7F3FF"/>
<path d="M1213.15 442.276H1182.33C1180.78 442.276 1179.52 441.011 1179.52 439.465V437.974C1179.52 436.427 1180.78 435.162 1182.33 435.162H1213.15C1214.7 435.162 1215.97 436.427 1215.97 437.974V439.465C1215.97 441.011 1214.7 442.276 1213.15 442.276Z" fill="#E7F3FF"/>
<path d="M997.07 153.644L930.346 163.162L974.627 132.986L976.878 142.657L993.1 145.6L997.07 153.644" fill="#4476BD"/>
<path d="M930.354 163.158L985.878 134.534L1040.29 131.796L930.354 163.158Z" fill="white"/>
<path d="M974.63 132.98L930.354 163.158L964.627 115.993L974.63 132.98" fill="white"/>
<path d="M887.553 188.143V780.977C887.553 795.588 875.709 807.428 861.089 807.428H529.217C514.601 807.428 502.756 795.588 502.756 780.977V188.143C502.756 173.529 514.601 161.686 529.217 161.686H861.089C875.709 161.686 887.553 173.529 887.553 188.143Z" fill="#A3C4E6"/>
<path d="M631.148 732.798H792.004C797.046 732.798 801.136 728.711 801.136 723.667V674.19C801.136 669.146 797.046 665.059 792.004 665.059H631.148C626.11 665.059 622.016 669.146 622.016 674.19V723.667C622.016 728.711 626.11 732.798 631.148 732.798" fill="white"/>
<path d="M589.566 635.233H751.486C756.234 635.233 760.088 631.384 760.088 626.631V583.769C760.088 579.02 756.234 575.172 751.486 575.172H589.566C584.817 575.172 580.969 579.02 580.969 583.769V626.631C580.969 631.384 584.817 635.233 589.566 635.233" fill="#F27169"/>
<path d="M880.812 161.682V409.944H508.385V161.682H880.812Z" fill="#E7F3FF"/>
<path d="M843.241 361.586C843.366 362.584 843.014 363.624 842.212 364.349C840.898 365.523 838.885 365.42 837.705 364.105C836.51 362.791 832.588 359.356 828.93 359.361C827.197 359.361 825.645 360.147 824.191 361.762C818.572 367.97 826.555 377.134 826.638 377.227C827.807 378.546 827.683 380.559 826.364 381.728C825.044 382.897 823.032 382.773 821.862 381.454C817.744 376.797 811.933 365.797 819.462 357.483C822.126 354.533 825.412 352.976 828.956 352.981C832.086 352.986 835.325 354.161 838.585 356.479C840.846 358.088 842.295 359.671 842.45 359.847C842.905 360.349 843.169 360.96 843.241 361.586Z" fill="#303D60"/>
<path d="M822.821 360.173C822.821 360.729 822.624 361.279 822.225 361.723C821.367 362.677 819.898 362.753 818.949 361.895L811.528 355.216C810.574 354.363 810.504 352.894 811.357 351.94C812.215 350.991 813.679 350.915 814.633 351.769L822.053 358.447C822.563 358.906 822.821 359.537 822.821 360.173" fill="#303D60"/>
<path d="M815.526 358.176L814.891 358.594C814.166 359.077 813.41 359.485 812.634 359.818C812.629 359.818 812.614 359.828 812.604 359.828C807.506 361.989 801.481 360.891 797.431 356.856C789.059 348.529 777.981 342.746 764.345 339.617C763.821 339.497 763.302 339.381 762.778 339.275C757.625 338.182 752.855 337.643 748.92 337.396C742.84 337.013 737.923 332.283 737.374 326.213L737.339 325.795L737.143 323.689C736.649 318.405 740.886 313.891 746.185 314.037C751.374 314.183 758.219 314.717 765.861 316.208C770.974 317.201 776.445 318.621 782.011 320.636C794.232 325.059 806.932 332.328 817.379 344.217C821.107 348.463 820.216 355.027 815.526 358.176" fill="#A3C4E5"/>
<path d="M812.604 359.825C807.504 361.988 801.482 360.892 797.429 356.854C789.059 348.528 777.981 342.745 764.347 339.614C763.823 339.495 763.3 339.385 762.781 339.275C763.983 327.999 765.229 316.547 765.229 316.547L765.862 316.208C770.977 317.201 776.446 318.621 782.015 320.64C782.015 320.64 779.442 331.982 788.765 337.476C798.092 342.974 805.75 362.173 812.604 359.825" fill="#4476BD"/>
<path d="M668.389 308.346C663.627 304.071 665.347 296.875 665.422 296.571L669.969 297.86L667.695 297.218L669.973 297.846C669.964 297.893 668.952 302.289 671.412 304.497L668.389 308.346" fill="#D9655E"/>
<path d="M732.364 308.346C737.127 304.071 735.406 296.875 735.327 296.571L730.784 297.86L733.058 297.218L730.78 297.846C730.789 297.893 731.802 302.289 729.336 304.497L732.364 308.346" fill="#D9655E"/>
<path d="M627.121 312.002V409.947H748.79V312.002C748.79 307.605 745.195 304.01 740.802 304.01H635.113C633.66 304.01 632.301 304.404 631.124 305.088C629.605 305.964 628.405 307.324 627.726 308.955C627.332 309.897 627.121 310.924 627.121 312.002" fill="#D9655E"/>
<path d="M655.109 312.002V409.943H776.783V312.002C776.783 307.603 773.19 304.01 768.792 304.01H663.106C658.707 304.01 655.109 307.603 655.109 312.002" fill="#F27169"/>
<path d="M726.589 304.01H687.955V299.125H726.589V304.01Z" fill="#4476BD"/>
<path d="M694.993 304.01H672.652V299.125H694.993V304.01Z" fill="#303D60"/>
<path d="M765.715 316.264L760.062 323.262C759.103 324.461 757.278 324.461 756.314 323.262L754.057 320.464L750.45 315.991C749.702 315.065 750.361 313.682 751.55 313.682H764.478C765.814 313.682 766.552 315.229 765.715 316.264" fill="#E7F3FF"/>
<path d="M765.715 316.264L760.062 323.262C759.103 324.461 757.278 324.461 756.314 323.262L754.057 320.464C758.995 319.269 760.89 315.765 761.591 313.682H764.478C765.814 313.682 766.552 315.229 765.715 316.264" fill="#4476BD"/>
<path d="M648.171 331.684C648.171 331.684 648.171 331.68 648.171 331.675L648.954 329.383L649.109 328.933C651.382 322.309 648.457 315.048 642.256 311.781C637.849 309.466 632.539 306.297 627.129 302.209C614.309 292.525 605.403 281.261 600.542 268.6C597.823 261.527 590.534 257.317 583.062 258.583L582.19 258.733C578.993 259.281 576.382 261.166 574.821 263.702C573.256 266.223 572.74 269.388 573.696 272.491C585.167 309.611 617.309 329.439 634.151 337.553C639.645 340.197 646.207 337.455 648.171 331.684" fill="#A3C4E5"/>
<path d="M648.176 331.675L648.959 329.383L649.114 328.933C651.387 322.31 648.462 315.049 642.261 311.782C637.854 309.466 632.543 306.297 627.134 302.21C614.314 292.525 605.407 281.261 600.546 268.6C597.828 261.527 590.539 257.317 583.067 258.583L582.195 258.733C578.998 259.282 576.387 261.166 574.826 263.702C581.932 262.099 590.14 262.45 593.581 270.841C600.2 286.999 619.723 304.572 635.468 314.06C650.857 323.327 648.303 331.324 648.176 331.675Z" fill="#4476BD"/>
<path d="M584.709 226.357C583.673 225.846 582.407 225.836 581.32 226.436C579.548 227.416 578.906 229.643 579.881 231.414C580.86 233.21 583.106 238.76 581.718 242.73C581.067 244.605 579.628 245.993 577.331 246.968C568.471 250.713 561.543 238.596 561.473 238.474C560.484 236.707 558.248 236.083 556.485 237.072C554.723 238.061 554.095 240.297 555.084 242.06C558.581 248.285 568.321 258.733 580.185 253.713C584.395 251.932 587.32 248.955 588.651 245.107C589.828 241.708 589.771 237.747 588.492 233.341C587.601 230.275 586.429 228.11 586.298 227.871C585.923 227.191 585.36 226.675 584.709 226.357" fill="#303D60"/>
<path d="M578.533 249.049C577.938 248.843 577.263 248.848 576.63 249.11C575.275 249.682 574.638 251.243 575.21 252.602L579.654 263.173C580.225 264.527 581.786 265.165 583.141 264.593C584.5 264.021 585.138 262.46 584.566 261.105L580.122 250.535C579.813 249.809 579.227 249.288 578.533 249.049" fill="#303D60"/>
<path d="M683.827 237.634C683.827 234.363 681.174 231.714 677.907 231.714C674.639 231.714 671.986 234.363 671.986 237.634C671.986 240.902 674.639 243.555 677.907 243.555C681.174 243.555 683.827 240.902 683.827 237.634Z" fill="#303D60"/>
<path d="M677.907 235.23C678.376 235.23 678.755 234.85 678.755 234.382V210.424C678.755 209.955 678.376 209.571 677.907 209.571C677.438 209.571 677.059 209.955 677.059 210.424V234.382C677.059 234.85 677.438 235.23 677.907 235.23Z" fill="#303D60"/>
<path d="M752.671 237.634C752.671 234.363 750.018 231.714 746.75 231.714C743.483 231.714 740.83 234.363 740.83 237.634C740.83 240.902 743.483 243.555 746.75 243.555C750.018 243.555 752.671 240.902 752.671 237.634Z" fill="#303D60"/>
<path d="M738.793 299.125H645.142C638.753 299.125 633.521 293.894 633.521 287.5V247.75C633.521 241.356 638.753 236.13 645.142 236.13H738.793C745.187 236.13 750.418 241.356 750.418 247.75V287.5C750.418 293.894 745.187 299.125 738.793 299.125Z" fill="#D9655E"/>
<path d="M763.477 299.125H668.421C662.416 299.125 657.504 294.212 657.504 288.207V247.045C657.504 241.04 662.416 236.128 668.421 236.128H763.477C769.482 236.128 774.394 241.04 774.394 247.045V288.207C774.394 294.212 769.482 299.125 763.477 299.125Z" fill="#F27169"/>
<path d="M737.44 276.897H689.613C689.613 276.897 694.488 287.018 715.943 287.022C733.554 287.022 737.44 276.897 737.44 276.897" fill="white"/>
<path d="M663.957 270.542H764.711V248.459H663.957V270.542Z" fill="#A3C4E5"/>
<path d="M745.176 259.989H747.473V257.692H745.176V259.989Z" fill="white"/>
<path d="M748.086 259.989H750.383V257.692H748.086V259.989Z" fill="white"/>
<path d="M748.086 262.994H750.383V260.697H748.086V262.994Z" fill="white"/>
<path d="M751.098 259.989H753.395V257.692H751.098V259.989Z" fill="white"/>
<path d="M742.258 259.989H744.555V257.692H742.258V259.989Z" fill="white"/>
<path d="M742.258 262.994H744.555V260.697H742.258V262.994Z" fill="white"/>
<path d="M739.338 259.989H741.635V257.692H739.338V259.989Z" fill="white"/>
<path d="M745.176 257.018H747.473V254.721H745.176V257.018Z" fill="white"/>
<path d="M745.176 254.256H747.473V251.959H745.176V254.256Z" fill="white"/>
<path d="M742.258 257.018H744.555V254.721H742.258V257.018Z" fill="white"/>
<path d="M748.086 257.018H750.383V254.721H748.086V257.018Z" fill="white"/>
<path d="M745.176 262.994H747.473V260.697H745.176V262.994Z" fill="white"/>
<path d="M745.176 266.022H747.473V263.72H745.176V266.022Z" fill="white"/>
<path d="M683.752 259.989H686.049V257.692H683.752V259.989Z" fill="white"/>
<path d="M686.658 259.989H688.96V257.692H686.658V259.989Z" fill="white"/>
<path d="M686.658 262.994H688.96V260.697H686.658V262.994Z" fill="white"/>
<path d="M689.668 259.989H691.97V257.692H689.668V259.989Z" fill="white"/>
<path d="M680.824 259.989H683.126V257.692H680.824V259.989Z" fill="white"/>
<path d="M680.824 262.994H683.126V260.697H680.824V262.994Z" fill="white"/>
<path d="M677.906 259.989H680.203V257.692H677.906V259.989Z" fill="white"/>
<path d="M683.752 257.018H686.049V254.721H683.752V257.018Z" fill="white"/>
<path d="M683.752 254.256H686.049V251.959H683.752V254.256Z" fill="white"/>
<path d="M680.824 257.018H683.126V254.721H680.824V257.018Z" fill="white"/>
<path d="M686.658 257.018H688.96V254.721H686.658V257.018Z" fill="white"/>
<path d="M683.752 262.994H686.049V260.697H683.752V262.994Z" fill="white"/>
<path d="M683.752 266.022H686.049V263.72H683.752V266.022Z" fill="white"/>
<path d="M746.753 235.356C747.222 235.356 747.601 234.977 747.601 234.508V210.55C747.601 210.081 747.222 209.697 746.753 209.697C746.284 209.697 745.904 210.081 745.904 210.55V234.508C745.904 234.977 746.284 235.356 746.753 235.356Z" fill="#303D60"/>
<path d="M683.784 311.266C683.784 310.356 683.048 309.62 682.138 309.62C681.229 309.62 680.488 310.356 680.488 311.266C680.488 312.175 681.229 312.916 682.138 312.916C683.048 312.916 683.784 312.175 683.784 311.266Z" fill="white"/>
<path d="M676.723 311.266C676.723 310.356 675.982 309.62 675.073 309.62C674.164 309.62 673.428 310.356 673.428 311.266C673.428 312.175 674.164 312.916 675.073 312.916C675.982 312.916 676.723 312.175 676.723 311.266Z" fill="white"/>
<path d="M669.733 311.266C669.733 310.356 668.997 309.62 668.088 309.62C667.178 309.62 666.438 310.356 666.438 311.266C666.438 312.175 667.178 312.916 668.088 312.916C668.997 312.916 669.733 312.175 669.733 311.266Z" fill="white"/>
<path d="M742.104 193.948H648.197C634.3 193.948 623.031 182.684 623.031 168.783H767.275C767.275 182.684 756.006 193.948 742.104 193.948Z" fill="#303D60"/>
<path d="M528.539 168.779C518.039 168.779 509.493 177.777 509.493 188.838V780.277C509.493 791.335 518.039 800.335 528.539 800.335H861.774C872.275 800.335 880.817 791.335 880.817 780.277V188.838C880.817 177.777 872.275 168.779 861.774 168.779H528.539ZM861.774 814.529H528.539C510.604 814.529 496.021 799.163 496.021 780.277V188.838C496.021 169.948 510.604 154.586 528.539 154.586H861.774C879.703 154.586 894.292 169.948 894.292 188.838V780.277C894.292 799.163 879.703 814.529 861.774 814.529Z" fill="#4A5E94"/>
<path d="M860.013 807.212H519.939C510.217 807.212 502.338 799.328 502.338 789.611V765.77H887.97V779.252C887.97 794.692 875.457 807.212 860.013 807.212Z" fill="#303D60"/>
<path d="M919.166 485.792C933.705 482.688 948.861 487.085 959.618 497.342C964.362 501.865 969.565 507.518 974.351 514.193C986.203 530.744 963.509 547.128 966.528 552.738C969.541 558.345 976.535 562.774 973.48 574.484C970.418 586.189 950.234 601.385 943.651 602.06C876.964 608.909 848.014 572.14 870.309 552.321C892.605 532.503 883.511 503.75 901.608 492.579C907.198 489.129 913.339 487.039 919.166 485.792" fill="#303D60"/>
<path d="M953.093 588.315C953.093 588.315 1015.9 615.676 1027.3 615.179C1038.7 614.682 1108.95 593.781 1108.95 593.781L1107.16 605.87C1107.16 605.87 1052.95 637.046 1033.99 638.818C1015.33 640.557 951.528 622.07 945.364 618.165C939.207 614.26 935.193 592.266 953.093 588.315" fill="#D49575"/>
<path d="M960.723 618.2C955.206 622.03 948.286 625.184 939.605 627.186C907.058 634.705 894.586 607.198 889.906 588.317C894.339 585.777 898.517 585.219 900.928 584.928C903.28 584.652 905.755 584.469 907.806 584.366C911.455 581.567 916.907 570.111 918.109 552.322L919.642 552.735L945.292 559.752C945.292 559.752 944.114 567.908 943.536 575.614C943.094 581.647 943.023 587.408 944.167 588.819C946.171 589.25 947.367 589.536 947.367 589.536C947.367 589.536 947.373 589.545 947.385 589.559C947.727 590.126 955.171 602.361 960.723 618.2Z" fill="#EDA783"/>
<path d="M945.297 559.754C945.297 559.754 944.12 567.901 943.552 575.616C929.012 574.163 922.274 560.326 919.646 552.737L945.297 559.754" fill="#D49575"/>
<path d="M949.639 567.409C949.639 567.409 915.139 565.506 916.66 544.042C918.176 522.582 914.742 507.882 936.832 508.187C958.917 508.496 962.611 516.99 963.849 524.274C965.086 531.564 958.644 567.353 949.639 567.409Z" fill="#EDA783"/>
<path d="M963.679 512.272C958.818 505.433 954.69 506.563 952.296 508.339C934.205 496.639 920.974 511.072 920.974 511.072C917.567 526.307 905.826 534.332 905.826 534.332C905.826 534.332 911.944 539.22 926.568 535.977C945.29 531.829 951.718 515.595 952.594 513.102C954.559 515.141 957.103 516.44 959.051 520.864C961.368 526.119 962.822 529.166 962.863 537.8C962.863 537.8 970.971 522.524 963.679 512.272" fill="#303D60"/>
<path d="M880.081 688.329C876.961 672.406 866.806 608.787 876.961 588.317C880.611 580.962 894.928 580.297 910.631 580.944C915.515 584.098 934.139 596.018 941.782 594.532C941.867 594.514 942.011 594.481 942.216 594.429C945.812 593.53 947.173 590.998 944.168 588.818C944.162 588.814 951.944 588.068 961.605 589.887C967.062 590.914 981.776 598.526 981.776 598.526C981.776 598.526 974.368 611.914 963.442 616.536C965.297 633.158 962.532 640.489 945.294 678.875C930.718 711.326 947.258 740.543 947.258 740.543C947.258 740.543 861.488 809.5 861.012 774.386C860.651 747.954 884.063 708.682 880.081 688.329" fill="white"/>
<path d="M951.511 815.524C956.18 814.999 960.376 812.443 962.985 808.543C963.401 807.92 963.842 807.255 964.309 806.542C974.076 791.767 977.875 746.504 999.831 698.284C1005.18 686.547 1024.38 684.433 1029.62 671.162C1029.62 671.162 1042.5 628.15 1004.95 626.879C967.405 625.614 904.388 746.561 903.39 759.245C902.431 771.531 878.568 823.755 951.511 815.524Z" fill="#D9655E"/>
<path d="M1100.75 814.535H1047.31C1047.31 814.535 1045.31 806.013 1048.82 800.21C1051.92 795.077 1050.73 792.157 1048.44 787.91C1050.86 788.9 1053.99 789.799 1057.44 789.603C1060.1 789.453 1062.92 788.243 1065.39 786.809C1067.68 789.429 1077.54 800.595 1080.61 802.807C1084.1 805.315 1099.68 804.42 1100.75 814.535" fill="#303D60"/>
<path d="M1030.83 639.317C1034.05 663.444 1046.62 739.597 1068.79 776.75C1075.94 788.726 1050.78 795.439 1050.64 795.406C1047.28 794.524 1041.65 789.143 1039.06 786.809C1021.06 770.59 984.528 724.658 984.528 687.833C984.528 669.879 984.211 635.586 997.268 626.872C1005.31 621.505 1029.55 629.736 1030.83 639.317Z" fill="#D9655E"/>
<path d="M919.644 814.535C919.644 814.535 921.623 811.779 925.078 806.543C929.187 800.318 933.738 788.069 939.253 772.362C945.055 755.876 951.934 735.593 960.525 714.49C963.177 707.979 965.991 701.383 968.991 694.798C974.339 683.06 989.049 684.682 994.284 671.411C994.284 671.411 1014.72 625.409 977.165 624.138C939.614 622.868 868.261 747.204 864.164 759.246C859.67 772.427 837.769 827.168 919.644 814.535Z" fill="#F27169"/>
<path d="M1061.53 814.535H1008.08C1008.08 814.535 1006.08 806.013 1009.59 800.21C1012.7 795.077 1011.5 792.157 1009.21 787.91C1011.62 788.899 1014.76 789.799 1018.21 789.602C1020.87 789.452 1023.68 788.243 1026.16 786.808C1028.46 789.429 1038.3 800.595 1041.38 802.807C1044.87 805.315 1060.45 804.419 1061.53 814.535" fill="#4A5E94"/>
<path d="M939.251 772.362C945.049 755.876 951.926 735.593 960.518 714.49C958.273 698.501 953.429 684.514 945.291 678.875C945.291 678.875 925.538 740.065 939.251 772.362" fill="#E66B63"/>
<path d="M999.636 637.606C1002.85 661.733 1007.39 739.597 1029.55 776.749C1036.7 788.726 1011.55 795.438 1011.41 795.406C1008.04 794.524 1002.42 789.143 999.827 786.809C981.834 770.59 945.295 724.657 945.295 687.833C945.295 669.879 966.36 637.029 979.423 628.311C987.463 622.943 998.358 628.025 999.636 637.606" fill="#F27169"/>
<path d="M1115.33 562.69L1060.6 556.877C1059 556.709 1057.49 557.637 1056.93 559.136L1037.34 610.591C1036.48 612.85 1038.09 615.284 1040.5 615.377L1094.8 617.571C1096.28 617.632 1097.64 616.765 1098.21 615.405L1118.22 567.57C1119.13 565.385 1117.68 562.943 1115.33 562.69Z" fill="#303D60"/>
<path d="M1120.08 563.192L1065.35 557.375C1063.76 557.206 1062.25 558.134 1061.68 559.634L1042.09 611.089C1041.23 613.348 1042.84 615.781 1045.25 615.879L1099.56 618.068C1101.03 618.129 1102.4 617.262 1102.96 615.903L1122.97 568.067C1123.88 565.882 1122.44 563.44 1120.08 563.192" fill="#4476BD"/>
<path d="M1089.75 587.215C1090.41 585.377 1089.47 583.891 1087.63 583.891C1085.79 583.891 1083.77 585.377 1083.09 587.215C1082.43 589.053 1083.38 590.543 1085.21 590.543C1087.05 590.543 1089.08 589.053 1089.75 587.215Z" fill="#E7F3FF"/>
<path d="M1118.45 568.05C1118.78 567.146 1118.31 566.415 1117.41 566.415C1116.51 566.415 1115.51 567.146 1115.18 568.05C1114.85 568.956 1115.32 569.687 1116.23 569.687C1117.12 569.687 1118.12 568.956 1118.45 568.05Z" fill="#E7F3FF"/>
<path d="M889.904 588.316C889.904 588.316 965.763 616.249 977.159 615.677C984.524 615.307 1045.76 593.782 1045.76 593.782L1051.26 604.183C1051.26 604.183 991.657 642.489 975.276 642.302C942.919 641.927 888.337 622.071 882.172 618.166C876.012 614.261 871.994 592.267 889.904 588.316" fill="#EDA783"/>
<path d="M1045.76 593.783C1045.76 593.783 1051.26 585.327 1056.73 585.078C1062.21 584.83 1071.66 588.81 1074.9 589.428C1078.13 590.052 1087.34 593.038 1084.6 597.519C1081.86 601.995 1069.17 602.989 1063.7 601.995C1058.23 601.002 1051.26 604.185 1051.26 604.185L1045.76 593.783Z" fill="#EDA783"/>
<path d="M1055.25 585.333C1055.25 585.333 1063.95 581.34 1066.44 580.594C1068.93 579.849 1068.43 580.609 1067.69 582.966C1066.94 585.324 1062.47 587.574 1062.47 588.315C1062.47 589.055 1055.25 585.333 1055.25 585.333Z" fill="#EDA783"/>
<path d="M1114.45 589.306C1114.45 589.306 1108.96 580.624 1107.16 580.268C1101.69 579.185 1101.69 586.399 1102.85 591.044C1104.09 596.036 1108.31 600.743 1109.47 600.33C1110.65 599.922 1115.74 593.895 1114.45 589.306Z" fill="#EDA783"/>
<path d="M1114.66 591.044C1114.66 591.044 1116.41 600.785 1107.16 605.871L1109.9 599.168L1114.66 591.044Z" fill="#EDA783"/>
<path d="M956.093 555.066C956.093 555.066 952.838 553.777 943.658 554.523C943.658 554.523 944.145 558.099 950.914 558.455C954.75 558.652 956.093 555.066 956.093 555.066Z" fill="white"/>
<path d="M928.984 602.094C928.984 602.094 922.202 623.572 898.897 628.457C898.897 628.457 860.421 616.602 879.577 590.389C879.577 590.389 898.527 576.318 928.984 602.094Z" fill="white"/>
<path d="M602.833 694.83C602.833 702.246 600.766 709.169 597.175 715.071C597.175 715.08 597.171 715.08 597.171 715.089C596.177 716.716 595.071 718.267 593.857 719.721C593.083 720.649 592.272 721.549 591.414 722.406C589.343 724.474 587.05 726.311 584.552 727.877C579.218 731.228 573.011 733.314 566.346 733.746C565.525 733.797 564.686 733.825 563.847 733.825C555.897 733.825 548.51 731.444 542.346 727.356C540.489 726.133 538.75 724.75 537.138 723.236C534.204 720.471 531.696 717.269 529.732 713.716C526.629 708.124 524.861 701.683 524.861 694.83C524.861 684.072 529.225 674.322 536.28 667.263C543.339 660.217 553.08 655.853 563.847 655.853C574.614 655.853 584.36 660.217 591.414 667.263C598.469 674.322 602.833 684.072 602.833 694.83Z" fill="white"/>
<path d="M548.332 711.307C546.185 709.38 546.963 706.136 546.996 706L549.044 706.582L548.018 706.291L549.044 706.577C549.04 706.596 548.585 708.579 549.696 709.572L548.332 711.307Z" fill="#D9655E"/>
<path d="M577.153 711.307C579.3 709.38 578.522 706.136 578.489 706L576.441 706.582L577.463 706.291L576.441 706.577C576.445 706.596 576.9 708.579 575.789 709.572L577.153 711.307Z" fill="#D9655E"/>
<path d="M584.551 712.947V727.877C579.216 731.228 573.01 733.314 566.345 733.746C565.524 733.797 564.685 733.825 563.846 733.825C555.896 733.825 548.509 731.444 542.345 727.356C540.488 726.133 538.749 724.75 537.137 723.236C534.202 720.471 531.695 717.269 529.73 713.716V712.947C529.73 710.969 531.357 709.352 533.335 709.352H580.955C582.938 709.352 584.551 710.969 584.551 712.947Z" fill="#D9655E"/>
<path d="M597.169 712.947V715.089C596.175 716.716 595.069 718.267 593.855 719.721C593.081 720.649 592.27 721.549 591.412 722.406C589.341 724.474 587.048 726.311 584.55 727.877C579.216 731.228 573.009 733.314 566.344 733.746C565.523 733.797 564.684 733.825 563.845 733.825C555.895 733.825 548.508 731.444 542.344 727.356V712.947C542.344 710.969 543.97 709.352 545.948 709.352H593.564C595.542 709.352 597.169 710.969 597.169 712.947" fill="#F27169"/>
<path d="M574.551 709.352H557.146V707.149H574.551V709.352Z" fill="#4476BD"/>
<path d="M560.317 709.352H550.248V707.149H560.317V709.352Z" fill="#303D60"/>
<path d="M555.281 679.389C555.281 677.918 554.09 676.722 552.618 676.722C551.142 676.722 549.951 677.918 549.951 679.389C549.951 680.861 551.142 682.057 552.618 682.057C554.09 682.057 555.281 680.861 555.281 679.389Z" fill="#303D60"/>
<path d="M552.617 678.363C552.823 678.363 552.996 678.194 552.996 677.983V667.188C552.996 666.977 552.823 666.803 552.617 666.803C552.406 666.803 552.232 666.977 552.232 667.188V677.983C552.232 678.194 552.406 678.363 552.617 678.363Z" fill="#303D60"/>
<path d="M586.303 679.389C586.303 677.918 585.108 676.722 583.636 676.722C582.159 676.722 580.969 677.918 580.969 679.389C580.969 680.861 582.159 682.057 583.636 682.057C585.108 682.057 586.303 680.861 586.303 679.389Z" fill="#303D60"/>
<path d="M580.05 707.149H537.853C534.975 707.149 532.617 704.796 532.617 701.913V684.007C532.617 681.124 534.975 678.771 537.853 678.771H580.05C582.928 678.771 585.286 681.124 585.286 684.007V701.913C585.286 704.796 582.928 707.149 580.05 707.149Z" fill="#D9655E"/>
<path d="M591.169 707.149H548.339C545.634 707.149 543.422 704.936 543.422 702.232V683.688C543.422 680.983 545.634 678.771 548.339 678.771H591.169C593.873 678.771 596.086 680.983 596.086 683.688V702.232C596.086 704.936 593.873 707.149 591.169 707.149Z" fill="#F27169"/>
<path d="M579.441 697.136H557.893C557.893 697.136 560.086 701.697 569.757 701.697C577.688 701.702 579.441 697.136 579.441 697.136Z" fill="#E7F3FF"/>
<path d="M546.332 694.272H591.726V684.326H546.332V694.272Z" fill="#A3C4E5"/>
<path d="M582.924 689.519H583.96V688.483H582.924V689.519Z" fill="#E7F3FF"/>
<path d="M584.236 689.519H585.272V688.483H584.236V689.519Z" fill="#E7F3FF"/>
<path d="M584.236 690.874H585.272V689.838H584.236V690.874Z" fill="#E7F3FF"/>
<path d="M585.592 689.519H586.628V688.483H585.592V689.519Z" fill="#E7F3FF"/>
<path d="M581.605 689.519H582.641V688.483H581.605V689.519Z" fill="#E7F3FF"/>
<path d="M581.605 690.874H582.641V689.838H581.605V690.874Z" fill="#E7F3FF"/>
<path d="M580.293 689.519H581.329V688.483H580.293V689.519Z" fill="#E7F3FF"/>
<path d="M582.924 688.183H583.96V687.147H582.924V688.183Z" fill="#E7F3FF"/>
<path d="M582.924 686.937H583.96V685.901H582.924V686.937Z" fill="#E7F3FF"/>
<path d="M581.605 688.183H582.641V687.147H581.605V688.183Z" fill="#E7F3FF"/>
<path d="M584.236 688.183H585.272V687.147H584.236V688.183Z" fill="#E7F3FF"/>
<path d="M582.924 690.874H583.96V689.838H582.924V690.874Z" fill="#E7F3FF"/>
<path d="M582.924 692.238H583.96V691.202H582.924V692.238Z" fill="#E7F3FF"/>
<path d="M555.25 689.519H556.286V688.483H555.25V689.519Z" fill="#E7F3FF"/>
<path d="M556.562 689.519H557.598V688.483H556.562V689.519Z" fill="#E7F3FF"/>
<path d="M556.562 690.874H557.598V689.838H556.562V690.874Z" fill="#E7F3FF"/>
<path d="M557.914 689.519H558.95V688.483H557.914V689.519Z" fill="#E7F3FF"/>
<path d="M553.932 689.519H554.968V688.483H553.932V689.519Z" fill="#E7F3FF"/>
<path d="M553.932 690.874H554.968V689.838H553.932V690.874Z" fill="#E7F3FF"/>
<path d="M552.619 689.519H553.65V688.483H552.619V689.519Z" fill="#E7F3FF"/>
<path d="M555.25 688.183H556.286V687.147H555.25V688.183Z" fill="#E7F3FF"/>
<path d="M555.25 686.937H556.286V685.901H555.25V686.937Z" fill="#E7F3FF"/>
<path d="M553.932 688.183H554.968V687.147H553.932V688.183Z" fill="#E7F3FF"/>
<path d="M556.562 688.183H557.598V687.147H556.562V688.183Z" fill="#E7F3FF"/>
<path d="M555.25 690.874H556.286V689.838H555.25V690.874Z" fill="#E7F3FF"/>
<path d="M555.25 692.238H556.286V691.202H555.25V692.238Z" fill="#E7F3FF"/>
<path d="M583.636 678.363C583.847 678.363 584.016 678.194 584.016 677.983V667.188C584.016 666.977 583.847 666.803 583.636 666.803C583.425 666.803 583.252 666.977 583.252 667.188V677.983C583.252 678.194 583.425 678.363 583.636 678.363Z" fill="#303D60"/>
<path d="M555.265 712.624C555.265 712.211 554.932 711.878 554.52 711.878C554.112 711.878 553.779 712.211 553.779 712.624C553.779 713.031 554.112 713.364 554.52 713.364C554.932 713.364 555.265 713.031 555.265 712.624Z" fill="white"/>
<path d="M552.084 712.624C552.084 712.211 551.751 711.878 551.343 711.878C550.93 711.878 550.598 712.211 550.598 712.624C550.598 713.031 550.93 713.364 551.343 713.364C551.751 713.364 552.084 713.031 552.084 712.624Z" fill="white"/>
<path d="M548.933 712.624C548.933 712.211 548.6 711.878 548.193 711.878C547.78 711.878 547.447 712.211 547.447 712.624C547.447 713.031 547.78 713.364 548.193 713.364C548.6 713.364 548.933 713.031 548.933 712.624Z" fill="white"/>
<path d="M778.471 606.643C778.471 617.841 783.194 627.933 790.755 635.044C797.728 641.612 807.122 645.634 817.457 645.634C818.303 645.634 819.139 645.605 819.964 645.554C829.731 644.935 838.516 640.721 845.027 634.215C845.883 633.357 846.697 632.462 847.47 631.529C848.689 630.066 849.797 628.51 850.79 626.879C854.379 620.982 856.444 614.054 856.444 606.643C856.444 595.88 852.083 586.135 845.027 579.075C837.97 572.021 828.223 567.657 817.457 567.657C806.697 567.657 796.95 572.021 789.888 579.075C782.837 586.135 778.471 595.88 778.471 606.643" fill="white"/>
<path d="M794.817 624.302C795.506 624.78 796.273 625.178 797.119 625.492C803.194 630.78 812.856 639.311 819.96 645.555C829.731 644.936 838.52 640.722 845.024 634.216C845.885 633.358 846.699 632.462 847.472 631.53C848.693 630.067 849.8 628.511 850.792 626.88C849.951 625.398 848.944 623.889 847.764 622.361C841.49 614.247 836.375 611.495 837.784 601.019C838.536 595.332 834.893 575.228 821.828 574.192C820.737 574.103 814.14 572.997 809.359 574.323C797.776 577.534 781.486 615.109 794.817 624.302" fill="#303D60"/>
<path d="M808.321 622.063C808.26 622.086 813.745 625.391 818.085 624.491C822.17 623.652 826.317 618.135 826.262 618.115C824.584 617.675 823.042 615.791 823.712 605.76L822.936 605.863L809.862 607.601C809.862 607.601 809.897 611.684 809.664 615.514C809.472 618.73 809.081 621.767 808.321 622.063" fill="#EDA783"/>
<path d="M809.865 607.6C809.865 607.6 809.9 611.683 809.668 615.513C816.903 615.766 821.139 609.415 822.941 605.862L809.865 607.6" fill="#D49575"/>
<path d="M807.223 611.075C807.223 611.075 824.303 612.439 824.984 601.789C825.67 591.139 828.338 584.141 817.463 582.818C806.583 581.501 804.204 585.425 803.112 588.926C802.014 592.423 802.797 610.447 807.223 611.075Z" fill="#EDA783"/>
<path d="M804.938 583.404C804.938 583.404 813.578 594.855 820.649 597.157C827.72 599.463 830.957 597.734 830.957 597.734C830.957 597.734 827.46 593.276 826.129 587.009C825.742 585.166 824.396 583.667 822.592 583.108C817.524 581.547 807.787 579.227 804.938 583.404" fill="#303D60"/>
<path d="M811.756 584.019C811.756 584.019 807.458 586.687 805.784 588.997C804.171 591.224 802.572 597.036 802.931 599.558C802.931 599.558 799.724 587.591 803.987 583.035C808.514 578.207 811.756 584.019 811.756 584.019" fill="#303D60"/>
<path d="M790.758 635.045C797.73 641.612 807.125 645.634 817.461 645.634H820.056C820.019 645.61 819.998 645.582 819.967 645.554C829.737 644.936 838.523 640.722 845.027 634.215C845.885 633.357 846.702 632.462 847.476 631.529C846.124 628.595 844.83 626.2 843.707 624.643C838.877 617.903 824.912 617.045 824.912 617.045V617.049C824.912 617.054 824.906 617.049 824.906 617.054C824.88 617.073 824.849 617.082 824.828 617.101C819.51 620.237 816.016 621.231 813.723 621.231C810.333 621.231 809.558 619.084 809.407 618.54C809.407 618.535 809.407 618.535 809.407 618.535V618.531V618.521C809.392 618.451 809.387 618.409 809.387 618.409C809.387 618.409 799.305 620.115 794.824 624.301C793.872 625.177 793.181 626.167 792.874 627.273C792.5 628.646 791.73 631.468 790.758 635.045" fill="#F27169"/>
<path d="M463.613 554.607H783.449C792.989 554.607 800.721 546.873 800.721 537.333V449.393C800.721 439.853 792.989 432.121 783.449 432.121H463.613C454.074 432.121 446.342 439.853 446.342 449.393V537.333C446.342 546.873 454.074 554.607 463.613 554.607Z" fill="white"/>
<path d="M561.155 493.357C561.155 502.076 558.722 510.218 554.503 517.16C554.503 517.174 554.494 517.174 554.494 517.183C553.327 519.091 552.028 520.919 550.598 522.63C549.689 523.722 548.733 524.782 547.725 525.785C545.292 528.222 542.592 530.383 539.658 532.221C533.381 536.163 526.078 538.619 518.241 539.121C517.275 539.186 516.291 539.219 515.302 539.219C505.955 539.219 497.269 536.416 490.017 531.611C487.833 530.172 485.789 528.546 483.891 526.765C480.436 523.511 477.488 519.743 475.181 515.566C471.53 508.99 469.453 501.415 469.453 493.357C469.453 480.701 474.581 469.235 482.883 460.933C491.18 452.646 502.641 447.513 515.302 447.513C527.967 447.513 539.423 452.646 547.725 460.933C556.022 469.235 561.155 480.701 561.155 493.357" fill="#E7F3FF"/>
<path d="M497.051 512.73C494.529 510.466 495.443 506.655 495.481 506.491L497.89 507.175L496.686 506.833L497.89 507.171C497.886 507.194 497.351 509.524 498.654 510.696L497.051 512.73" fill="#D9655E"/>
<path d="M530.953 512.73C533.475 510.466 532.565 506.655 532.523 506.491L530.114 507.175L531.318 506.833L530.114 507.171C530.118 507.194 530.657 509.524 529.35 510.696L530.953 512.73" fill="#D9655E"/>
<path d="M539.656 514.666V532.221C533.38 536.163 526.077 538.619 518.239 539.121C517.273 539.186 516.289 539.219 515.3 539.219C505.953 539.219 497.267 536.416 490.016 531.611C487.831 530.172 485.787 528.546 483.889 526.765C480.434 523.511 477.486 519.743 475.18 515.566V514.666C475.18 512.336 477.087 510.438 479.417 510.438H535.428C537.753 510.438 539.656 512.336 539.656 514.666" fill="#D9655E"/>
<path d="M554.492 514.666V517.183C553.325 519.091 552.027 520.919 550.597 522.63C549.687 523.722 548.731 524.782 547.723 525.785C545.291 528.222 542.591 530.383 539.656 532.221C533.38 536.163 526.077 538.619 518.239 539.121C517.273 539.186 516.289 539.219 515.3 539.219C505.953 539.219 497.267 536.416 490.016 531.611V514.666C490.016 512.336 491.923 510.438 494.253 510.438H550.25C552.58 510.438 554.492 512.336 554.492 514.666Z" fill="#F27169"/>
<path d="M527.894 510.433H507.424V507.846H527.894V510.433Z" fill="#4476BD"/>
<path d="M511.148 510.433H499.312V507.846H511.148V510.433Z" fill="#303D60"/>
<path d="M505.231 475.197C505.231 473.463 503.825 472.061 502.095 472.061C500.361 472.061 498.959 473.463 498.959 475.197C498.959 476.927 500.361 478.333 502.095 478.333C503.825 478.333 505.231 476.927 505.231 475.197Z" fill="#303D60"/>
<path d="M502.095 473.993C502.343 473.993 502.545 473.786 502.545 473.538V460.844C502.545 460.596 502.343 460.394 502.095 460.394C501.846 460.394 501.645 460.596 501.645 460.844V473.538C501.645 473.786 501.846 473.993 502.095 473.993Z" fill="#303D60"/>
<path d="M541.711 475.197C541.711 473.463 540.31 472.061 538.575 472.061C536.846 472.061 535.439 473.463 535.439 475.197C535.439 476.927 536.846 478.333 538.575 478.333C540.31 478.333 541.711 476.927 541.711 475.197Z" fill="#303D60"/>
<path d="M534.362 507.846H484.736C481.351 507.846 478.576 505.075 478.576 501.686V480.625C478.576 477.236 481.351 474.466 484.736 474.466H534.362C537.747 474.466 540.517 477.236 540.517 480.625V501.686C540.517 505.075 537.747 507.846 534.362 507.846Z" fill="#D9655E"/>
<path d="M547.439 507.846H497.068C493.889 507.846 491.283 505.244 491.283 502.061V480.25C491.283 477.068 493.889 474.466 497.068 474.466H547.439C550.622 474.466 553.224 477.068 553.224 480.25V502.061C553.224 505.244 550.622 507.846 547.439 507.846Z" fill="#F27169"/>
<path d="M533.643 496.071H508.303C508.303 496.071 510.886 501.429 522.253 501.434C531.586 501.434 533.643 496.071 533.643 496.071Z" fill="#E7F3FF"/>
<path d="M494.705 492.701H548.091V481.001H494.705V492.701Z" fill="#A3C4E5"/>
<path d="M537.74 487.108H538.959V485.889H537.74V487.108Z" fill="#E7F3FF"/>
<path d="M539.283 487.108H540.502V485.889H539.283V487.108Z" fill="#E7F3FF"/>
<path d="M539.283 488.702H540.502V487.483H539.283V488.702Z" fill="#E7F3FF"/>
<path d="M540.877 487.108H542.096V485.889H540.877V487.108Z" fill="#E7F3FF"/>
<path d="M536.193 487.108H537.412V485.889H536.193V487.108Z" fill="#E7F3FF"/>
<path d="M536.193 488.702H537.412V487.483H536.193V488.702Z" fill="#E7F3FF"/>
<path d="M534.646 487.108H535.865V485.889H534.646V487.108Z" fill="#E7F3FF"/>
<path d="M537.74 485.533H538.959V484.314H537.74V485.533Z" fill="#E7F3FF"/>
<path d="M537.74 484.071H538.959V482.857H537.74V484.071Z" fill="#E7F3FF"/>
<path d="M536.193 485.533H537.412V484.314H536.193V485.533Z" fill="#E7F3FF"/>
<path d="M539.283 485.533H540.502V484.314H539.283V485.533Z" fill="#E7F3FF"/>
<path d="M537.74 488.702H538.959V487.483H537.74V488.702Z" fill="#E7F3FF"/>
<path d="M537.74 490.305H538.959V489.086H537.74V490.305Z" fill="#E7F3FF"/>
<path d="M505.191 487.108H506.41V485.889H505.191V487.108Z" fill="#E7F3FF"/>
<path d="M506.732 487.108H507.951V485.889H506.732V487.108Z" fill="#E7F3FF"/>
<path d="M506.732 488.702H507.951V487.483H506.732V488.702Z" fill="#E7F3FF"/>
<path d="M508.33 487.108H509.544V485.889H508.33V487.108Z" fill="#E7F3FF"/>
<path d="M503.643 487.108H504.861V485.889H503.643V487.108Z" fill="#E7F3FF"/>
<path d="M503.643 488.702H504.861V487.483H503.643V488.702Z" fill="#E7F3FF"/>
<path d="M502.098 487.108H503.316V485.889H502.098V487.108Z" fill="#E7F3FF"/>
<path d="M505.191 485.533H506.41V484.314H505.191V485.533Z" fill="#E7F3FF"/>
<path d="M505.191 484.071H506.41V482.857H505.191V484.071Z" fill="#E7F3FF"/>
<path d="M503.643 485.533H504.861V484.314H503.643V485.533Z" fill="#E7F3FF"/>
<path d="M506.732 485.533H507.951V484.314H506.732V485.533Z" fill="#E7F3FF"/>
<path d="M505.191 488.702H506.41V487.483H505.191V488.702Z" fill="#E7F3FF"/>
<path d="M505.191 490.305H506.41V489.086H505.191V490.305Z" fill="#E7F3FF"/>
<path d="M538.575 473.993C538.823 473.993 539.025 473.786 539.025 473.538V460.844C539.025 460.596 538.823 460.394 538.575 460.394C538.327 460.394 538.125 460.596 538.125 460.844V473.538C538.125 473.786 538.327 473.993 538.575 473.993Z" fill="#303D60"/>
<path d="M505.213 514.281C505.213 513.799 504.82 513.405 504.337 513.405C503.859 513.405 503.465 513.799 503.465 514.281C503.465 514.764 503.859 515.153 504.337 515.153C504.82 515.153 505.213 514.764 505.213 514.281Z" fill="white"/>
<path d="M501.468 514.281C501.468 513.799 501.079 513.405 500.597 513.405C500.114 513.405 499.725 513.799 499.725 514.281C499.725 514.764 500.114 515.153 500.597 515.153C501.079 515.153 501.468 514.764 501.468 514.281Z" fill="white"/>
<path d="M497.766 514.281C497.766 513.799 497.377 513.405 496.894 513.405C496.411 513.405 496.018 513.799 496.018 514.281C496.018 514.764 496.411 515.153 496.894 515.153C497.377 515.153 497.766 514.764 497.766 514.281Z" fill="white"/>
<path d="M632.861 490.61H588.414V484.844H632.861V490.61Z" fill="#4476BD"/>
<path d="M643.811 502.136H588.414V496.371H643.811V502.136Z" fill="#4476BD"/>
<path d="M689.02 502.136H648.225V496.371H689.02V502.136Z" fill="#4476BD"/>
<path d="M629.209 513.41H588.414V507.649H629.209V513.41Z" fill="#4476BD"/>
<path d="M667.266 490.61H637.641V484.844H667.266V490.61Z" fill="#4476BD"/>
<path d="M733.59 490.61H673.66V484.844H733.59V490.61Z" fill="#4476BD"/>
<path d="M651.785 464.472H588.855V456.316H651.785V464.472Z" fill="#4476BD"/>
<path d="M745.677 464.472H658.738V456.316H745.677V464.472Z" fill="#4476BD"/>
<path d="M623.531 608.969H594.305V605.177H623.531V608.969Z" fill="white"/>
<path d="M630.731 616.544H594.305V612.756H630.731V616.544Z" fill="white"/>
<path d="M660.459 616.544H633.633V612.756H660.459V616.544Z" fill="white"/>
<path d="M621.127 623.959H594.305V620.172H621.127V623.959Z" fill="white"/>
<path d="M646.153 608.969H626.672V605.177H646.153V608.969Z" fill="white"/>
<path d="M689.761 608.969H650.357V605.177H689.761V608.969Z" fill="white"/>
<path d="M635.978 591.785H594.602V586.417H635.978V591.785Z" fill="white"/>
<path d="M697.711 591.785H640.547V586.417H697.711V591.785Z" fill="white"/>
<path d="M665.064 700.498H635.838V696.71H665.064V700.498Z" fill="#4476BD"/>
<path d="M672.264 708.077H635.838V704.29H672.264V708.077Z" fill="#4476BD"/>
<path d="M701.991 708.077H675.164V704.29H701.991V708.077Z" fill="#4476BD"/>
<path d="M662.664 715.492H635.838V711.705H662.664V715.492Z" fill="#4476BD"/>
<path d="M687.684 700.498H668.203V696.71H687.684V700.498Z" fill="#4476BD"/>
<path d="M731.292 700.498H691.889V696.71H731.292V700.498Z" fill="#4476BD"/>
<path d="M677.509 683.317H636.133V677.95H677.509V683.317Z" fill="#4476BD"/>
<path d="M739.242 683.317H682.078V677.95H739.242V683.317Z" fill="#4476BD"/>
<path d="M847.147 203.975L843.317 206.724L839.471 204.006C840.323 202.805 841.726 202.01 843.317 202.01C844.891 202.01 846.295 202.785 847.147 203.975Z" fill="#303D60"/>
<path d="M843.318 195.314C839.473 195.314 836.063 197.228 834.002 200.152L836.434 201.863C837.962 199.697 840.477 198.29 843.318 198.29C846.137 198.29 848.637 199.676 850.17 201.81L852.586 200.074C850.515 197.187 847.131 195.314 843.318 195.314Z" fill="#303D60"/>
<path d="M843.313 182.581C835.165 182.581 827.96 186.631 823.598 192.825L826.028 194.529C829.855 189.114 836.182 185.561 843.313 185.561C850.385 185.561 856.669 189.05 860.513 194.402L862.922 192.666C858.543 186.562 851.391 182.581 843.313 182.581" fill="#303D60"/>
<path d="M843.316 189.547C837.526 189.547 832.382 192.414 829.258 196.811L831.688 198.52C834.275 194.896 838.525 192.524 843.316 192.524C848.071 192.524 852.289 194.854 854.887 198.431L857.302 196.7C854.167 192.366 849.065 189.547 843.316 189.547" fill="#303D60"/>
<path d="M1375.15 818.135H174.561C173.727 818.135 173.045 817.45 173.045 816.616V815.707C173.045 814.873 173.727 814.188 174.561 814.188H1375.15C1375.97 814.188 1376.66 814.873 1376.66 815.707V816.616C1376.66 817.45 1375.97 818.135 1375.15 818.135Z" fill="#303D60"/>
</svg>
