<svg width="1500" height="1500" viewBox="0 0 1500 1500" fill="none" xmlns="http://www.w3.org/2000/svg">
<path d="M0 1500H1500V-5.96046e-05H0V1500Z" fill="white"/>
<path d="M1211.35 1102.94C1211.01 1102.12 1210.57 1101.33 1210.05 1100.59C1207.54 1097.08 1203.21 1095.2 1198.91 1095.2C1195.91 1095.2 1192.93 1096.12 1190.61 1098.04C1200.55 1084.57 1215.92 1024.9 1168.68 998.601C1148.64 987.444 1130.22 983.172 1114.26 983.172C1083.07 983.172 1061.25 999.48 1054.9 1012.6C1051.5 999.009 1039.59 987.72 1027.69 980.898V412.101C1027.69 395.961 1014.61 382.878 998.47 382.878H922.348C918.49 378.09 912.574 375.03 905.941 375.03H781.066C781.066 365.778 781.066 348.201 781.066 342.477C781.066 325.935 767.656 312.528 751.114 312.528C734.98 312.528 721.822 325.287 721.189 341.268C721.189 341.274 721.189 341.28 721.189 341.286C721.189 341.307 721.186 341.328 721.186 341.349C721.186 341.358 721.186 341.364 721.186 341.373C721.183 341.394 721.183 341.415 721.183 341.433C721.183 341.442 721.183 341.451 721.183 341.457C721.18 341.499 721.18 341.541 721.177 341.583C721.177 341.589 721.177 341.595 721.177 341.598C721.177 341.613 721.177 341.631 721.177 341.646C721.177 341.661 721.177 341.673 721.174 341.688C721.174 341.7 721.174 341.718 721.174 341.733C721.174 341.748 721.174 341.76 721.174 341.775C721.174 341.79 721.174 341.805 721.171 341.82C721.171 341.835 721.171 341.853 721.171 341.868C721.171 341.88 721.171 341.895 721.171 341.907C721.171 341.928 721.171 341.949 721.168 341.967C721.168 341.979 721.168 341.991 721.168 342.003C721.168 342.03 721.168 342.054 721.168 342.084C721.168 342.093 721.168 342.105 721.168 342.114C721.168 342.132 721.168 342.153 721.168 342.171C721.168 342.183 721.165 342.195 721.165 342.207C721.165 342.228 721.165 342.246 721.165 342.264C721.165 342.276 721.165 342.288 721.165 342.297C721.165 342.318 721.165 342.336 721.165 342.357C721.165 342.366 721.165 342.378 721.165 342.387C721.165 342.417 721.165 342.447 721.165 342.477V375.03H584.911C578.299 375.03 572.383 378.087 568.522 382.878H492.395C476.255 382.878 463.172 395.961 463.172 412.101V903.405C418 843.696 386.224 773.877 372.757 700.227L368.645 700.98C382.583 777.105 415.855 849.132 463.172 910.287V967.785C458.236 972.576 454.607 978.42 453.056 985.335C450.878 995.049 451.64 1007.94 442.445 1011.75C440.975 1012.36 439.513 1012.63 438.058 1012.63C430.591 1012.63 423.245 1005.71 415.517 1003.12C413.648 1002.49 411.745 1002.2 409.858 1002.2C396.208 1002.2 383.218 1017.41 387.775 1030.91C390.133 1037.9 396.049 1043.99 395.557 1051.35C394.966 1060.2 385.231 1065.31 376.132 1065.31C374.929 1065.31 373.736 1065.22 372.578 1065.04C362.654 1063.48 353.893 1057.69 344.158 1055.21C341.839 1054.62 339.359 1054.31 336.878 1054.31C328.94 1054.31 321.004 1057.47 318.4 1064.66C315.337 1073.13 320.623 1084.5 313.975 1090.57C311.125 1093.17 307.003 1093.71 303.166 1094.07C290.32 1095.29 277.283 1096.68 264.434 1098.2C239.227 1098.34 221.116 1098.44 212.158 1098.44C145.866 1098.44 48.4575 1093.37 67.0011 1033.39C94.341 944.976 247.64 905.829 222.595 837.618C199.881 775.764 241.669 721.26 298.733 675.57C355.915 629.787 418.364 638.997 391.892 514.977C362.174 375.738 464.158 380.625 522.043 326.733C606.641 247.971 649.448 203.247 742.238 200.931C744.281 200.88 746.335 200.853 748.444 200.853C879.094 200.853 1130.32 298.629 1162.83 421.098C1177.88 477.759 1176.88 544.221 1232.03 579.15C1256.24 594.48 1283.35 601.104 1310.55 610.743C1365.89 630.357 1388.89 673.122 1388.26 715.107C1386.7 817.767 1316.1 820.842 1338.31 900.513C1353.82 956.151 1405.09 984.651 1385.25 1039.44C1367.83 1087.56 1287.19 1100.63 1211.35 1102.94V1102.94ZM1200 658.614L1162 869.031L1189.06 873.918L1225.6 671.628L1225.61 671.631L1227.08 663.525L1227.06 663.522L1227.06 663.504L1231.11 641.13C1231.14 640.923 1231.16 640.716 1231.16 640.509C1231.17 638.844 1229.97 637.362 1228.28 637.056L1208.11 633.414C1207.9 633.375 1207.69 633.357 1207.49 633.357C1205.82 633.357 1204.35 634.548 1204.04 636.243L1200 658.614V658.614ZM751.114 359.664C741.835 359.664 734.314 352.143 734.314 342.861C734.314 334.347 740.644 327.315 748.852 326.208C748.768 326.244 748.681 326.277 748.591 326.313C749.422 326.187 750.25 326.058 751.114 326.058C752.257 326.058 753.373 326.172 754.45 326.388C762.133 327.936 767.92 334.722 767.92 342.861C767.92 347.973 765.035 353.04 761.435 356.121C761.438 356.121 761.437 356.121 761.44 356.121C758.59 358.341 755.008 359.664 751.114 359.664" fill="#E7F3FF"/>
<path d="M1410.02 874.875C1362.31 985.935 1270.31 1076.65 1160.06 1125.8L1161.76 1129.62C1272.96 1080.03 1365.69 988.614 1413.86 876.525L1410.02 874.875Z" fill="#C5DCFD"/>
<path d="M1397.87 905.381C1414.61 891.446 1426.07 871.31 1429.5 849.8C1430.34 844.526 1430.51 838.52 1426.97 834.527C1426 833.429 1424.71 832.523 1423.25 832.376C1420.9 832.136 1418.83 833.867 1417.25 835.634C1408.93 844.991 1406.04 857.936 1404.61 870.383C1403.18 882.827 1400.45 891.959 1397.87 905.381" fill="#C5DCFD"/>
<path d="M1375.11 943.393C1384.95 923.962 1387.48 900.934 1382.1 879.826C1380.78 874.651 1378.56 869.071 1373.72 866.812C1372.39 866.188 1370.85 865.867 1369.45 866.311C1367.19 867.025 1365.98 869.434 1365.24 871.678C1361.31 883.573 1363.79 896.602 1367.41 908.593C1371.03 920.587 1372.15 930.046 1375.11 943.393" fill="#C5DCFD"/>
<path d="M1341.6 990.15C1353.75 972.066 1359.08 949.521 1356.32 927.912C1355.64 922.617 1354.11 916.806 1349.59 913.971C1348.35 913.194 1346.85 912.684 1345.41 912.954C1343.09 913.386 1341.59 915.63 1340.58 917.766C1335.22 929.091 1336.09 942.324 1338.22 954.669C1340.35 967.014 1340.31 976.542 1341.6 990.15" fill="#C5DCFD"/>
<path d="M1303.11 1031.12C1315.25 1013.04 1320.58 990.492 1317.82 968.883C1317.14 963.588 1315.62 957.777 1311.09 954.942C1309.85 954.162 1308.36 953.655 1306.91 953.922C1304.59 954.357 1303.09 956.601 1302.08 958.737C1296.72 970.059 1297.59 983.295 1299.72 995.64C1301.85 1007.99 1301.81 1017.51 1303.11 1031.12" fill="#C5DCFD"/>
<path d="M1245.44 1078.4C1259.39 1061.68 1267.03 1039.8 1266.52 1018.03C1266.39 1012.69 1265.48 1006.75 1261.27 1003.46C1260.12 1002.56 1258.69 1001.9 1257.22 1002.02C1254.87 1002.21 1253.14 1004.28 1251.92 1006.3C1245.42 1017.01 1244.91 1030.26 1245.75 1042.76C1246.59 1055.26 1245.56 1064.73 1245.44 1078.4Z" fill="#C5DCFD"/>
<path d="M1200.26 1108.6C1213.98 1093.71 1222.85 1072.94 1224.72 1051.26C1225.18 1045.95 1225.03 1039.94 1221.78 1036.17C1220.88 1035.13 1219.73 1034.3 1218.46 1034.23C1216.42 1034.14 1214.73 1035.98 1213.46 1037.84C1206.76 1047.67 1204.92 1060.76 1204.31 1073.27C1203.7 1085.78 1201.81 1095.05 1200.26 1108.6Z" fill="#4476BD"/>
<path d="M1363.7 960.132C1385.8 963.774 1409.63 959.202 1429.5 947.508C1434.37 944.643 1439.41 940.77 1440.45 935.37C1440.73 933.885 1440.66 932.286 1439.85 931.059C1438.55 929.085 1435.81 928.638 1433.36 928.602C1420.38 928.41 1407.9 934.806 1396.76 942C1385.62 949.194 1376.38 953.178 1363.7 960.132" fill="#C5DCFD"/>
<path d="M1336.63 995.511C1357.22 1004.32 1381.46 1005.57 1403.54 998.961C1408.95 997.338 1414.78 994.785 1417.07 989.787C1417.7 988.413 1418.01 986.841 1417.52 985.458C1416.73 983.229 1414.18 982.143 1411.81 981.522C1399.24 978.237 1385.6 981.471 1373.06 985.797C1360.52 990.12 1350.6 991.785 1336.63 995.511" fill="#C5DCFD"/>
<path d="M1296.19 1036.77C1314.6 1049.53 1338.1 1055.6 1361.06 1053.54C1366.68 1053.03 1372.9 1051.69 1376.15 1047.25C1377.04 1046.03 1377.66 1044.56 1377.46 1043.11C1377.13 1040.76 1374.84 1039.19 1372.65 1038.11C1360.99 1032.37 1346.98 1032.81 1333.83 1034.54C1320.68 1036.27 1310.63 1035.92 1296.19 1036.77Z" fill="#C5DCFD"/>
<path d="M1239.63 1084.42C1260.41 1092.77 1284.67 1093.48 1306.6 1086.38C1311.97 1084.64 1317.74 1081.96 1319.92 1076.91C1320.52 1075.52 1320.79 1073.94 1320.27 1072.57C1319.43 1070.36 1316.86 1069.33 1314.47 1068.76C1301.84 1065.76 1288.27 1069.29 1275.83 1073.9C1263.4 1078.5 1253.51 1080.38 1239.63 1084.42" fill="#C5DCFD"/>
<path d="M1193.89 1111.73C1208.68 1128.54 1230.03 1140.1 1252.8 1143.63C1258.39 1144.49 1264.74 1144.69 1268.96 1141.16C1270.12 1140.19 1271.08 1138.91 1271.23 1137.45C1271.48 1135.1 1269.64 1133.02 1267.77 1131.44C1257.84 1123.07 1244.13 1120.12 1230.96 1118.63C1217.78 1117.14 1208.1 1114.38 1193.89 1111.73" fill="#DFEBFD"/>
<path d="M1140.86 640.98C1140.27 640.947 1139.78 640.482 1139.74 639.879L1139.32 633.912C1139.27 633.261 1139.77 632.694 1140.42 632.649C1141.06 632.586 1141.63 633.093 1141.68 633.747L1142.1 639.714C1142.15 640.365 1141.66 640.932 1141 640.977L1140.86 640.98" fill="#DFEBFD"/>
<path d="M1167.66 912.156L1151.89 913.266L1134.34 658.992L1142.23 658.437L1150.11 657.885L1167.66 912.156Z" fill="#C5DCFD"/>
<path d="M1142.35 637.323L1139.16 637.548L1134.34 658.992L1150.11 657.885L1142.35 637.323" fill="#C5DCFD"/>
<path d="M368.643 700.98C396.831 854.94 504.081 992.097 646.701 1056.58L648.423 1052.77C507.099 988.908 400.653 852.78 372.756 700.227L368.643 700.98Z" fill="#E7F3FF"/>
<path d="M413.749 827.855C405.943 807.518 405.772 784.353 413.284 763.905C415.123 758.892 417.907 753.567 422.95 751.815C424.336 751.332 425.902 751.17 427.249 751.752C429.418 752.694 430.378 755.214 430.888 757.521C433.585 769.755 429.787 782.462 424.96 794.021C420.13 805.58 418.048 814.88 413.749 827.855" fill="#E7F3FF"/>
<path d="M487.815 935.328C477.945 915.912 475.377 892.887 480.729 871.77C482.04 866.595 484.257 861.012 489.09 858.744C490.419 858.12 491.961 857.796 493.362 858.237C495.615 858.948 496.833 861.354 497.577 863.598C501.528 875.487 499.068 888.519 495.462 900.516C491.856 912.513 490.749 921.978 487.815 935.328" fill="#4476BD"/>
<path d="M525.123 974.844C515.067 957.267 511.059 935.04 514.062 913.491C514.797 908.208 516.288 902.388 520.299 899.43C521.403 898.617 522.714 898.065 523.962 898.287C525.972 898.647 527.211 900.825 528.03 902.916C532.374 913.995 531.252 927.168 529.056 939.498C526.86 951.825 526.632 961.287 525.123 974.844" fill="#4476BD"/>
<path d="M398.905 793.665C376.552 792.291 354.337 782.517 337.579 766.692C333.472 762.813 329.416 757.911 329.614 752.418C329.668 750.909 330.097 749.364 331.156 748.347C332.863 746.712 335.629 746.889 338.026 747.399C350.728 750.105 361.465 759.126 370.723 768.621C379.981 778.116 388.096 784.059 398.905 793.665" fill="#E7F3FF"/>
<path d="M417.403 834.192C395.371 838.191 371.464 834.003 351.412 822.636C346.498 819.849 341.389 816.06 340.27 810.675C339.964 809.196 340.009 807.594 340.795 806.355C342.061 804.36 344.791 803.871 347.242 803.793C360.22 803.391 372.802 809.586 384.058 816.597C395.314 823.608 404.614 827.442 417.403 834.192Z" fill="#4476BD"/>
<path d="M530.638 979.311C512.467 992.4 489.088 998.904 466.093 997.269C460.459 996.867 454.216 995.643 450.892 991.266C449.977 990.063 449.329 988.596 449.506 987.141C449.791 984.792 452.044 983.178 454.222 982.056C465.769 976.107 479.788 976.287 492.967 977.772C506.143 979.26 516.19 978.72 530.638 979.311Z" fill="#DFEBFD"/>
<path d="M94.434 916.689C101.321 916.374 108.211 916.218 115.099 916.218C263.151 916.206 410.094 988.239 499.893 1106.12L503.217 1103.59C412.563 984.627 264.501 912.051 115.099 912.039C108.149 912.039 101.195 912.198 94.2441 912.513L94.434 916.689" fill="#C5DCFD"/>
<path d="M127.186 914.316C107.343 905.328 84.2256 903.804 63.3732 910.101C58.2615 911.646 52.7829 914.112 50.7369 919.041C50.1744 920.397 49.9188 921.951 50.4228 923.331C51.2349 925.551 53.6934 926.658 55.968 927.3C68.022 930.711 80.9313 927.666 92.7534 923.523C104.576 919.38 113.98 917.847 127.186 914.316" fill="#C5DCFD"/>
<path d="M171.323 918.218C149.544 917.837 127.716 925.604 111.071 939.656C106.992 943.1 102.94 947.537 103.017 952.874C103.038 954.341 103.42 955.871 104.429 956.936C106.055 958.652 108.752 958.694 111.095 958.382C123.514 956.732 134.156 948.818 143.365 940.325C152.576 931.832 160.601 926.696 171.323 918.218" fill="#C5DCFD"/>
<path d="M228.006 927.966C206.437 924.927 183.825 929.964 165.587 941.877C161.116 944.796 156.553 948.705 155.976 954.012C155.818 955.47 156.01 957.036 156.881 958.215C158.286 960.117 160.956 960.486 163.32 960.465C175.848 960.345 187.378 953.79 197.556 946.488C207.737 939.186 216.329 935.07 228.006 927.966Z" fill="#C5DCFD"/>
<path d="M281.671 944.733C260.101 941.694 237.489 946.734 219.251 958.647C214.78 961.566 210.217 965.472 209.64 970.782C209.482 972.24 209.674 973.806 210.546 974.985C211.95 976.887 214.62 977.256 216.985 977.235C229.512 977.115 241.042 970.56 251.221 963.258C261.401 955.956 269.993 951.84 281.671 944.733" fill="#C5DCFD"/>
<path d="M349.373 975.999C328.235 970.74 305.222 973.413 285.848 983.37C281.099 985.809 276.155 989.223 275.033 994.443C274.723 995.88 274.754 997.455 275.498 998.718C276.697 1000.75 279.316 1001.4 281.669 1001.62C294.141 1002.8 306.287 997.476 317.168 991.269C328.049 985.059 337.022 981.855 349.373 975.999Z" fill="#C5DCFD"/>
<path d="M396.261 1003.48C376.872 997.623 354.313 998.712 333.991 1006.48C329.008 1008.38 323.674 1011.14 321.691 1015.72C321.148 1016.97 320.904 1018.37 321.399 1019.54C322.2 1021.42 324.604 1022.14 326.824 1022.47C338.596 1024.21 351.18 1020.16 362.7 1015.25C374.22 1010.34 383.388 1007.99 396.261 1003.48Z" fill="#DFEBFD"/>
<path d="M191.36 921.18C184.999 899.709 170.485 880.257 151.298 867.483C146.595 864.351 140.911 861.498 135.602 862.926C134.142 863.319 132.733 864.081 131.982 865.344C130.77 867.372 131.565 870.03 132.601 872.25C138.091 884.019 149.292 892.458 160.624 899.343C171.957 906.231 179.572 912.804 191.36 921.18" fill="#C5DCFD"/>
<path d="M235.005 930.102C233.953 907.734 224.503 885.378 208.92 868.395C205.101 864.231 200.26 860.103 194.764 860.223C193.254 860.256 191.703 860.661 190.672 861.705C189.011 863.388 189.148 866.157 189.624 868.56C192.146 881.301 201.009 892.167 210.37 901.56C219.731 910.956 225.556 919.155 235.005 930.102" fill="#C5DCFD"/>
<path d="M289.771 948.485C293.217 926.36 288.43 902.567 276.56 882.806C273.651 877.964 269.734 872.951 264.325 871.97C262.838 871.7 261.239 871.787 260.019 872.603C258.055 873.92 257.635 876.659 257.62 879.11C257.544 892.097 264.052 904.517 271.345 915.593C278.638 926.669 282.705 935.87 289.771 948.485" fill="#C5DCFD"/>
<path d="M357.322 978.6C355.774 956.262 345.829 934.122 329.872 917.487C325.96 913.41 321.031 909.393 315.538 909.636C314.029 909.702 312.487 910.14 311.479 911.208C309.856 912.927 310.057 915.693 310.585 918.084C313.39 930.765 322.492 941.433 332.059 950.616C341.626 959.799 347.632 967.869 357.322 978.6Z" fill="#4476BD"/>
<path d="M401.851 1007.84C410.524 987.198 411.613 962.952 404.851 940.917C403.195 935.514 400.6 929.709 395.587 927.45C394.21 926.829 392.638 926.529 391.258 927.027C389.035 927.831 387.964 930.39 387.361 932.766C384.157 945.351 387.481 958.974 391.891 971.481C396.301 983.988 398.032 993.897 401.851 1007.84" fill="#C5DCFD"/>
<path d="M586.21 980.456C563.665 959.372 531.82 948.62 501.112 951.722C480.313 953.822 457.633 964.937 453.055 985.334C450.877 995.048 451.639 1007.94 442.444 1011.75C433.444 1015.49 424.753 1006.22 415.516 1003.12C400.135 997.961 382.588 1015.54 387.775 1030.91C390.133 1037.9 396.049 1043.99 395.557 1051.35C394.888 1061.37 382.501 1066.6 372.577 1065.04C362.653 1063.48 353.893 1057.69 344.158 1055.21C334.426 1052.73 321.82 1055.22 318.4 1064.66C315.337 1073.13 320.623 1084.5 313.975 1090.57C311.125 1093.17 307.003 1093.71 303.166 1094.07C218.882 1102.07 126.06 1117.19 135.492 1132.17C138.07 1136.26 144.66 1134.96 149.497 1134.88C328.891 1132.07 491.842 1129.4 671.173 1134.9L586.21 980.456Z" fill="#DFEBFD"/>
<path d="M1090.63 698.67L1143.81 907.206L1133.7 909.786L1067.9 704.469" fill="#C5DCFD"/>
<path d="M1015.72 602.658C998.625 607.017 989.433 629.076 995.235 651.825C1001.04 674.577 1019.67 689.541 1036.76 685.182C1053.86 680.823 1063.05 658.764 1057.24 636.012C1051.44 613.26 1032.81 598.299 1015.72 602.658V602.658ZM1041.42 703.428C1014.26 710.355 985.359 689.292 976.989 656.478C968.622 623.667 983.91 591.336 1011.07 584.412C1038.22 577.485 1067.12 598.548 1075.49 631.359C1083.86 664.173 1068.57 696.504 1041.42 703.428" fill="#C5DCFD"/>
<path d="M1069.38 645.474C1070.26 648.933 1085.55 708.882 1085.55 708.882C1086.36 712.071 1084.44 715.317 1081.25 716.13C1078.06 716.943 1074.81 715.017 1074 711.828L1072.17 704.667C1072.17 704.667 1063.68 686.556 1040.21 694.023C1040.21 694.023 1068.21 690.525 1069.16 690.594C1070.11 690.663 1068.5 642.015 1069.38 645.474" fill="#4476BD"/>
<path d="M1083.57 725.253C1075.36 727.347 1066.97 722.37 1064.88 714.156C1064.88 714.156 1063.91 709.167 1061.97 706.41C1058.93 702.093 1052.73 700.47 1041.38 703.362L1038.5 687.333C1044.47 685.425 1048.76 682.548 1053.56 682.884C1056.13 682.569 1058.26 682.314 1060.05 682.104C1060.03 677.193 1059.94 670.716 1059.86 665.754C1059.79 660.48 1066.63 654.549 1066.61 650.76C1066.59 643.965 1059.62 637.098 1068.05 635.967L1076.35 634.866L1094.67 706.557C1096.77 714.771 1091.79 723.159 1083.57 725.253" fill="#C5DCFD"/>
<path d="M1098.46 696.78L1098.62 911.991L1109.06 911.982L1121.92 696.762" fill="#C5DCFD"/>
<path d="M1115.27 627.804C1115.29 651.285 1129.66 670.377 1147.3 670.365C1164.94 670.35 1179.29 651.237 1179.27 627.759C1179.25 604.278 1164.88 585.186 1147.24 585.198C1129.6 585.21 1115.26 604.323 1115.27 627.804ZM1096.44 627.819C1096.42 593.955 1119.2 566.388 1147.23 566.367C1175.25 566.346 1198.07 593.88 1198.1 627.744C1198.12 661.608 1175.34 689.175 1147.32 689.196C1119.29 689.214 1096.47 661.683 1096.44 627.819" fill="#C5DCFD"/>
<path d="M1105.87 639.978C1105.87 643.548 1105.92 705.414 1105.92 705.414C1105.92 708.708 1108.59 711.372 1111.88 711.372C1115.17 711.366 1117.84 708.699 1117.84 705.405L1117.83 698.016C1117.83 698.016 1121.57 678.366 1146.16 679.782C1146.16 679.782 1118.17 683.331 1117.26 683.634C1116.36 683.937 1105.87 636.408 1105.87 639.978Z" fill="#4476BD"/>
<path d="M1111.89 720.786C1120.37 720.78 1127.26 713.877 1127.25 705.402C1127.25 705.402 1126.95 700.326 1128.15 697.176C1130.03 692.238 1135.63 689.13 1147.35 689.121L1146.16 672.879C1139.9 672.507 1135.04 670.785 1130.47 672.297C1127.9 672.63 1125.77 672.912 1123.98 673.152C1122.79 668.391 1121.28 662.091 1120.12 657.267C1118.88 652.137 1110.78 648.087 1109.86 644.415C1108.2 637.821 1113.25 629.442 1104.8 630.438L1096.49 631.425L1096.5 705.423C1096.51 713.901 1103.41 720.792 1111.89 720.786" fill="#C5DCFD"/>
<path d="M1189.06 873.918L1161.99 869.031L1204.04 636.243C1204.38 634.335 1206.21 633.069 1208.11 633.414L1228.27 637.056C1230.18 637.401 1231.45 639.225 1231.1 641.13L1189.06 873.918" fill="#C5DCFD"/>
<path d="M1227.06 663.504L1200 658.614L1204.04 636.243C1204.38 634.335 1206.21 633.069 1208.11 633.414L1228.27 637.056C1230.18 637.401 1231.45 639.225 1231.1 641.13L1227.06 663.504Z" fill="#C5DCFD"/>
<path d="M1225.61 671.631L1225.6 671.628L1227.06 663.522L1227.08 663.525L1225.61 671.631Z" fill="#DFEBFD"/>
<path d="M1225.6 671.628L1198.54 666.741L1200.01 658.638L1227.06 663.522L1225.6 671.628Z" fill="#C5DCFD"/>
<path d="M1210.26 927.296L1166.09 909.887L1260.28 670.913L1304.45 688.322L1210.26 927.296" fill="#C5DCFD"/>
<path d="M1286.07 692.301L1300.63 698.04L1302.16 694.152L1287.6 688.413" fill="#D2F0FA"/>
<path d="M1281.17 704.715L1295.73 710.451L1297.27 706.563L1282.71 700.827" fill="#D2F0FA"/>
<path d="M1276.28 717.127L1290.84 722.866L1292.37 718.978L1277.81 713.239" fill="#D2F0FA"/>
<path d="M1264.27 726.731L1285.94 735.275L1287.48 731.39L1265.8 722.843" fill="#D2F0FA"/>
<path d="M1266.5 741.951L1281.05 747.69L1282.59 743.802L1268.03 738.066" fill="#D2F0FA"/>
<path d="M1261.6 754.365L1276.16 760.104L1277.69 756.216L1263.14 750.477" fill="#D2F0FA"/>
<path d="M1256.71 766.779L1271.27 772.515L1272.8 768.627L1258.24 762.891" fill="#D2F0FA"/>
<path d="M1244.69 776.385L1266.37 784.929L1267.91 781.041L1246.22 772.497" fill="#D2F0FA"/>
<path d="M1246.92 791.604L1261.48 797.343L1263.01 793.455L1248.45 787.716" fill="#D2F0FA"/>
<path d="M1242.03 804.018L1256.59 809.754L1258.12 805.866L1243.56 800.13" fill="#D2F0FA"/>
<path d="M1237.14 816.429L1251.7 822.168L1253.23 818.28L1238.67 812.541" fill="#D2F0FA"/>
<path d="M1225.12 826.035L1246.8 834.579L1248.34 830.694L1226.66 822.147" fill="#D2F0FA"/>
<path d="M1227.36 841.254L1241.91 846.993L1243.44 843.105L1228.89 837.366" fill="#D2F0FA"/>
<path d="M1222.46 853.668L1237.02 859.407L1238.55 855.519L1224 849.78" fill="#D2F0FA"/>
<path d="M1217.57 866.082L1232.13 871.818L1233.66 867.93L1219.1 862.194" fill="#D2F0FA"/>
<path d="M1205.56 875.688L1227.24 884.232L1228.77 880.344L1207.09 871.8" fill="#D2F0FA"/>
<path d="M1207.79 890.907L1222.34 896.643L1223.87 892.758L1209.32 887.019" fill="#D2F0FA"/>
<path d="M1202.89 903.318L1217.45 909.057L1218.98 905.169L1204.43 899.433" fill="#D2F0FA"/>
<path d="M1198 915.732L1212.56 921.471L1214.09 917.583L1199.53 911.844" fill="#D2F0FA"/>
<path d="M1242.54 1145.47H1022.29L985.295 812.274C984.824 808.038 988.142 804.333 992.405 804.333H1272.43C1276.69 804.333 1280.01 808.038 1279.54 812.274L1242.54 1145.47Z" fill="#C5DCFD"/>
<path d="M745.433 1193.65C580.607 1193.65 446.99 1188.07 446.99 1181.19C446.99 1179.28 457.31 1177.47 475.748 1175.85C480.473 1179.14 486.209 1181.06 492.395 1181.06H998.471C1004.66 1181.06 1010.39 1179.14 1015.12 1175.85C1033.56 1177.47 1043.88 1179.28 1043.88 1181.19C1043.88 1188.07 910.259 1193.65 745.433 1193.65" fill="#DFEBFD"/>
<path d="M751.113 359.663C741.834 359.663 734.313 352.142 734.313 342.86C734.313 333.581 741.834 326.057 751.113 326.057C760.395 326.057 767.919 333.581 767.919 342.86C767.919 352.142 760.395 359.663 751.113 359.663ZM751.113 312.527C734.574 312.527 721.164 325.934 721.164 342.476V380.861H781.065C781.065 380.861 781.065 350.375 781.065 342.476C781.065 325.934 767.655 312.527 751.113 312.527Z" fill="#F27169"/>
<path d="M761.433 356.121C765.033 353.04 767.919 347.973 767.919 342.861C767.919 348.249 765.381 353.046 761.439 356.121C761.436 356.121 761.436 356.121 761.433 356.121ZM721.164 342.477C721.164 342.447 721.164 342.417 721.164 342.387C721.164 342.417 721.164 342.447 721.164 342.477ZM721.164 342.357C721.164 342.336 721.164 342.318 721.164 342.297C721.164 342.318 721.164 342.339 721.164 342.357ZM721.164 342.264C721.164 342.246 721.164 342.228 721.164 342.207C721.164 342.228 721.164 342.246 721.164 342.264ZM721.167 342.171C721.167 342.153 721.167 342.132 721.167 342.114C721.167 342.132 721.167 342.153 721.167 342.171ZM721.167 342.084C721.167 342.054 721.167 342.03 721.167 342.003C721.167 342.03 721.167 342.057 721.167 342.084ZM721.167 341.967C721.17 341.949 721.17 341.928 721.17 341.907C721.17 341.928 721.17 341.949 721.167 341.967ZM721.17 341.868C721.17 341.853 721.17 341.835 721.17 341.82C721.17 341.835 721.17 341.853 721.17 341.868ZM721.173 341.775C721.173 341.76 721.173 341.748 721.173 341.733C721.173 341.748 721.173 341.76 721.173 341.775ZM721.173 341.688C721.176 341.673 721.176 341.661 721.176 341.646C721.176 341.661 721.176 341.673 721.173 341.688ZM721.176 341.598C721.176 341.595 721.176 341.589 721.176 341.583C721.176 341.589 721.176 341.592 721.176 341.598ZM721.182 341.457C721.182 341.451 721.182 341.442 721.182 341.433C721.182 341.442 721.182 341.451 721.182 341.457ZM721.185 341.373C721.185 341.364 721.185 341.358 721.185 341.349C721.185 341.358 721.185 341.367 721.185 341.373ZM721.188 341.286C721.188 341.28 721.188 341.274 721.188 341.268C721.188 341.274 721.188 341.28 721.188 341.286ZM754.449 326.388C753.372 326.172 752.256 326.058 751.113 326.058C750.249 326.058 749.421 326.187 748.59 326.313C748.68 326.277 748.767 326.244 748.851 326.208C749.592 326.109 750.348 326.058 751.113 326.058C752.256 326.058 753.372 326.172 754.449 326.388Z" fill="#D099A8"/>
<path d="M730.314 375.03H721.164V342.477C721.164 342.447 721.164 342.417 721.164 342.387C721.164 342.378 721.164 342.366 721.164 342.357C721.164 342.339 721.164 342.318 721.164 342.297C721.164 342.288 721.164 342.276 721.164 342.264C721.164 342.246 721.164 342.228 721.164 342.207C721.164 342.195 721.167 342.183 721.167 342.171C721.167 342.153 721.167 342.132 721.167 342.114C721.167 342.105 721.167 342.093 721.167 342.084C721.167 342.057 721.167 342.03 721.167 342.003C721.167 341.991 721.167 341.979 721.167 341.967C721.17 341.949 721.17 341.928 721.17 341.907C721.17 341.895 721.17 341.88 721.17 341.868C721.17 341.853 721.17 341.835 721.17 341.82C721.17 341.805 721.173 341.79 721.173 341.775C721.173 341.76 721.173 341.748 721.173 341.733C721.173 341.718 721.173 341.703 721.173 341.688C721.176 341.673 721.176 341.661 721.176 341.646C721.176 341.631 721.176 341.613 721.176 341.598C721.176 341.592 721.176 341.589 721.176 341.583C721.179 341.541 721.179 341.499 721.182 341.457C721.182 341.451 721.182 341.442 721.182 341.433C721.182 341.415 721.182 341.394 721.185 341.373C721.185 341.367 721.185 341.358 721.185 341.349C721.185 341.328 721.188 341.307 721.188 341.286C721.188 341.28 721.188 341.274 721.188 341.268C721.71 328.113 730.731 317.16 742.905 313.695C734.835 319.059 730.314 328.227 730.314 338.643V375.03V375.03ZM761.439 356.121C765.381 353.046 767.919 348.249 767.919 342.861C767.919 334.722 762.132 327.936 754.449 326.388C753.372 326.172 752.256 326.058 751.113 326.058C750.348 326.058 749.592 326.109 748.851 326.208C751.128 325.293 751.389 324.678 755.409 324.678C764.688 324.678 772.212 332.202 772.212 341.484C772.212 349.896 767.919 354.456 761.439 356.121" fill="#F27169"/>
<path d="M998.467 1181.06H492.391C476.251 1181.06 463.168 1167.97 463.168 1151.83V412.101C463.168 395.961 476.251 382.878 492.391 382.878H998.467C1014.61 382.878 1027.69 395.961 1027.69 412.101V1151.83C1027.69 1167.97 1014.61 1181.06 998.467 1181.06" fill="#4A5E94"/>
<path d="M495.887 1149.75H994.973V414.184H495.887V1149.75Z" fill="#DFEBFD"/>
<path d="M515.08 1127.28H975.784V436.653H515.08V1127.28Z" fill="white"/>
<path d="M927.002 396.09V426.09H563.852V396.09C563.852 393.9 564.182 391.8 564.812 389.82C567.482 381.24 575.492 375.03 584.912 375.03H905.942C917.582 375.03 927.002 384.45 927.002 396.09" fill="#F27169"/>
<path d="M927.002 426.09H563.852V404.37C563.852 398.55 564.182 393.75 564.812 389.82C567.482 381.24 575.492 375.03 584.912 375.03H587.492C581.942 380.37 577.892 388.53 577.892 396.87V418.59H927.002V426.09Z" fill="#F27169"/>
<path d="M717.678 514.755H642.843C640.257 514.755 638.16 512.661 638.16 510.075C638.16 507.489 640.257 505.392 642.843 505.392H717.678C720.264 505.392 722.358 507.489 722.358 510.075C722.358 512.661 720.264 514.755 717.678 514.755Z" fill="#4476BD"/>
<path d="M942.516 538.614H885.615C883.029 538.614 880.932 536.517 880.932 533.931C880.932 531.345 883.029 529.251 885.615 529.251H942.516C945.102 529.251 947.199 531.345 947.199 533.931C947.199 536.517 945.102 538.614 942.516 538.614Z" fill="#4476BD"/>
<path d="M860.958 538.614H642.843C640.257 538.614 638.16 536.517 638.16 533.931C638.16 531.345 640.257 529.251 642.843 529.251H860.958C863.544 529.251 865.641 531.345 865.641 533.931C865.641 536.517 863.544 538.614 860.958 538.614" fill="#4476BD"/>
<path d="M942.516 562.473H642.843C640.257 562.473 638.16 560.376 638.16 557.79C638.16 555.204 640.257 553.11 642.843 553.11H942.516C945.102 553.11 947.199 555.204 947.199 557.79C947.199 560.376 945.102 562.473 942.516 562.473Z" fill="#4476BD"/>
<path d="M942.515 586.332H847.262C844.679 586.332 842.582 584.235 842.582 581.649C842.582 579.063 844.679 576.966 847.262 576.966H942.515C945.101 576.966 947.198 579.063 947.198 581.649C947.198 584.235 945.101 586.332 942.515 586.332" fill="#4476BD"/>
<path d="M823.554 586.332H642.843C640.257 586.332 638.16 584.235 638.16 581.649C638.16 579.063 640.257 576.966 642.843 576.966H823.554C826.14 576.966 828.237 579.063 828.237 581.649C828.237 584.235 826.14 586.332 823.554 586.332Z" fill="#4476BD"/>
<path d="M942.516 514.755H742.236C739.65 514.755 737.553 512.661 737.553 510.075C737.553 507.489 739.65 505.392 742.236 505.392H942.516C945.102 505.392 947.199 507.489 947.199 510.075C947.199 512.661 945.102 514.755 942.516 514.755Z" fill="#4476BD"/>
<path d="M717.678 686.265H642.843C640.257 686.265 638.16 684.168 638.16 681.582C638.16 678.996 640.257 676.902 642.843 676.902H717.678C720.264 676.902 722.358 678.996 722.358 681.582C722.358 684.168 720.264 686.265 717.678 686.265Z" fill="#4476BD"/>
<path d="M942.516 710.124H885.615C883.029 710.124 880.932 708.027 880.932 705.441C880.932 702.855 883.029 700.758 885.615 700.758H942.516C945.102 700.758 947.199 702.855 947.199 705.441C947.199 708.027 945.102 710.124 942.516 710.124Z" fill="#4476BD"/>
<path d="M860.958 710.124H642.843C640.257 710.124 638.16 708.027 638.16 705.441C638.16 702.855 640.257 700.758 642.843 700.758H860.958C863.544 700.758 865.641 702.855 865.641 705.441C865.641 708.027 863.544 710.124 860.958 710.124" fill="#4476BD"/>
<path d="M942.516 733.983H642.843C640.257 733.983 638.16 731.886 638.16 729.3C638.16 726.714 640.257 724.617 642.843 724.617H942.516C945.102 724.617 947.199 726.714 947.199 729.3C947.199 731.886 945.102 733.983 942.516 733.983Z" fill="#4476BD"/>
<path d="M942.515 757.839H847.262C844.679 757.839 842.582 755.745 842.582 753.159C842.582 750.573 844.679 748.476 847.262 748.476H942.515C945.101 748.476 947.198 750.573 947.198 753.159C947.198 755.745 945.101 757.839 942.515 757.839" fill="#4476BD"/>
<path d="M823.554 757.839H642.843C640.257 757.839 638.16 755.745 638.16 753.159C638.16 750.573 640.257 748.476 642.843 748.476H823.554C826.14 748.476 828.237 750.573 828.237 753.159C828.237 755.745 826.14 757.839 823.554 757.839Z" fill="#4476BD"/>
<path d="M942.516 686.265H742.236C739.65 686.265 737.553 684.168 737.553 681.582C737.553 678.996 739.65 676.902 742.236 676.902H942.516C945.102 676.902 947.199 678.996 947.199 681.582C947.199 684.168 945.102 686.265 942.516 686.265Z" fill="#4476BD"/>
<path d="M717.678 851.774H642.843C640.257 851.774 638.16 849.677 638.16 847.091C638.16 844.505 640.257 842.409 642.843 842.409H717.678C720.264 842.409 722.358 844.505 722.358 847.091C722.358 849.677 720.264 851.774 717.678 851.774Z" fill="#4476BD"/>
<path d="M942.516 875.63H885.615C883.029 875.63 880.932 873.536 880.932 870.95C880.932 868.364 883.029 866.267 885.615 866.267H942.516C945.102 866.267 947.199 868.364 947.199 870.95C947.199 873.536 945.102 875.63 942.516 875.63Z" fill="#4476BD"/>
<path d="M860.958 875.63H642.843C640.257 875.63 638.16 873.536 638.16 870.95C638.16 868.364 640.257 866.267 642.843 866.267H860.958C863.544 866.267 865.641 868.364 865.641 870.95C865.641 873.536 863.544 875.63 860.958 875.63" fill="#4476BD"/>
<path d="M942.516 899.49H642.843C640.257 899.49 638.16 897.393 638.16 894.81C638.16 892.224 640.257 890.127 642.843 890.127H942.516C945.102 890.127 947.199 892.224 947.199 894.81C947.199 897.393 945.102 899.49 942.516 899.49Z" fill="#4476BD"/>
<path d="M942.515 923.349H847.262C844.679 923.349 842.582 921.252 842.582 918.666C842.582 916.08 844.679 913.983 847.262 913.983H942.515C945.101 913.983 947.198 916.08 947.198 918.666C947.198 921.252 945.101 923.349 942.515 923.349" fill="#4476BD"/>
<path d="M823.554 923.349H642.843C640.257 923.349 638.16 921.252 638.16 918.666C638.16 916.08 640.257 913.983 642.843 913.983H823.554C826.14 913.983 828.237 916.08 828.237 918.666C828.237 921.252 826.14 923.349 823.554 923.349Z" fill="#4476BD"/>
<path d="M942.516 851.774H742.236C739.65 851.774 737.553 849.677 737.553 847.091C737.553 844.505 739.65 842.409 742.236 842.409H942.516C945.102 842.409 947.199 844.505 947.199 847.091C947.199 849.677 945.102 851.774 942.516 851.774Z" fill="#4476BD"/>
<path d="M717.678 1020.28H642.843C640.257 1020.28 638.16 1018.19 638.16 1015.6C638.16 1013.01 640.257 1010.92 642.843 1010.92H717.678C720.264 1010.92 722.358 1013.01 722.358 1015.6C722.358 1018.19 720.264 1020.28 717.678 1020.28Z" fill="#4476BD"/>
<path d="M942.516 1044.14H885.615C883.029 1044.14 880.932 1042.04 880.932 1039.46C880.932 1036.87 883.029 1034.78 885.615 1034.78H942.516C945.102 1034.78 947.199 1036.87 947.199 1039.46C947.199 1042.04 945.102 1044.14 942.516 1044.14Z" fill="#4476BD"/>
<path d="M860.958 1044.14H642.843C640.257 1044.14 638.16 1042.04 638.16 1039.46C638.16 1036.87 640.257 1034.78 642.843 1034.78H860.958C863.544 1034.78 865.641 1036.87 865.641 1039.46C865.641 1042.04 863.544 1044.14 860.958 1044.14" fill="#4476BD"/>
<path d="M942.516 1068H642.843C640.257 1068 638.16 1065.9 638.16 1063.32C638.16 1060.73 640.257 1058.63 642.843 1058.63H942.516C945.102 1058.63 947.199 1060.73 947.199 1063.32C947.199 1065.9 945.102 1068 942.516 1068Z" fill="#4476BD"/>
<path d="M942.515 1091.86H847.262C844.679 1091.86 842.582 1089.76 842.582 1087.18C842.582 1084.59 844.679 1082.49 847.262 1082.49H942.515C945.101 1082.49 947.198 1084.59 947.198 1087.18C947.198 1089.76 945.101 1091.86 942.515 1091.86" fill="#4476BD"/>
<path d="M823.554 1091.86H642.843C640.257 1091.86 638.16 1089.76 638.16 1087.18C638.16 1084.59 640.257 1082.49 642.843 1082.49H823.554C826.14 1082.49 828.237 1084.59 828.237 1087.18C828.237 1089.76 826.14 1091.86 823.554 1091.86Z" fill="#4476BD"/>
<path d="M942.516 1020.28H742.236C739.65 1020.28 737.553 1018.19 737.553 1015.6C737.553 1013.01 739.65 1010.92 742.236 1010.92H942.516C945.102 1010.92 947.199 1013.01 947.199 1015.6C947.199 1018.19 945.102 1020.28 942.516 1020.28Z" fill="#4476BD"/>
<path d="M611.267 571.479V569.745H555.275C552.749 569.739 550.706 567.699 550.703 565.173V509.181C550.706 506.655 552.749 504.615 555.275 504.609H611.267C613.79 504.615 615.833 506.655 615.839 509.181V565.173C615.833 567.696 613.79 569.739 611.267 569.745V571.479V573.216C615.71 573.213 619.307 569.616 619.307 565.173V509.181C619.307 504.738 615.71 501.141 611.267 501.138H555.275C550.832 501.141 547.235 504.738 547.232 509.181V565.173C547.235 569.616 550.832 573.213 555.275 573.216H611.267V571.479" fill="#DFEBFD"/>
<path d="M611.267 742.431V740.697H555.275C552.749 740.691 550.706 738.648 550.703 736.125V680.133C550.706 677.607 552.749 675.564 555.275 675.561H611.267C613.79 675.564 615.833 677.607 615.839 680.133V736.125C615.833 738.648 613.79 740.691 611.267 740.697V742.431V744.168C615.71 744.165 619.307 740.568 619.307 736.125V680.133C619.307 675.69 615.71 672.093 611.267 672.09H555.275C550.832 672.093 547.235 675.69 547.232 680.133V736.125C547.235 740.568 550.832 744.165 555.275 744.168H611.267V742.431" fill="#DFEBFD"/>
<path d="M611.267 913.383V911.649H555.275C552.749 911.643 550.706 909.6 550.703 907.077V851.085C550.706 848.559 552.749 846.519 555.275 846.513H611.267C613.79 846.519 615.833 848.559 615.839 851.085V907.077C615.833 909.6 613.79 911.643 611.267 911.649V913.383V915.117C615.71 915.117 619.307 911.52 619.307 907.077V851.085C619.307 846.642 615.71 843.045 611.267 843.042H555.275C550.832 843.045 547.235 846.642 547.232 851.085V907.077C547.235 911.52 550.832 915.117 555.275 915.117H611.267V913.383" fill="#DFEBFD"/>
<path d="M611.267 1084.33V1082.6H555.275C552.749 1082.59 550.706 1080.55 550.703 1078.03V1022.04C550.706 1019.51 552.749 1017.47 555.275 1017.46H611.267C613.79 1017.47 615.833 1019.51 615.839 1022.04V1078.03C615.833 1080.55 613.79 1082.59 611.267 1082.6V1084.33V1086.07C615.71 1086.07 619.307 1082.47 619.307 1078.03V1022.04C619.307 1017.59 615.71 1014 611.267 1013.99H555.275C550.832 1014 547.235 1017.59 547.232 1022.04V1078.03C547.235 1082.47 550.832 1086.07 555.275 1086.07H611.267V1084.33" fill="#DFEBFD"/>
<path d="M553.407 528.42L579.267 559.647C580.332 560.934 581.937 561.627 583.605 561.522C585.27 561.417 586.776 560.526 587.67 559.113L637.428 480.606C638.964 478.179 638.244 474.963 635.817 473.424C633.387 471.885 630.174 472.608 628.635 475.035L582.714 547.491L561.423 521.778C559.59 519.564 556.308 519.258 554.094 521.091C551.88 522.924 551.571 526.206 553.407 528.42" fill="#4476BD"/>
<path d="M553.407 697.951L579.267 729.178C580.332 730.465 581.937 731.161 583.605 731.053C585.27 730.948 586.776 730.057 587.67 728.647L637.428 650.139C638.964 647.709 638.244 644.493 635.817 642.954C633.387 641.415 630.174 642.139 628.635 644.566L582.714 717.022L561.423 691.312C559.59 689.098 556.308 688.789 554.094 690.622C551.88 692.455 551.571 695.737 553.407 697.951Z" fill="#4476BD"/>
<path d="M366.74 744.408C366.74 744.408 368.03 752.97 368.846 753.717C368.846 753.717 368.027 755.145 365.582 755.28" fill="#EDA783"/>
<path d="M359.327 1188.32C319.805 1188.32 287.766 1185.43 287.766 1181.87C287.766 1178.31 319.805 1175.43 359.327 1175.43C398.852 1175.43 430.889 1178.31 430.889 1181.87C430.889 1185.43 398.852 1188.32 359.327 1188.32Z" fill="#DFEBFD"/>
<path d="M392.022 784.377L376.209 853.845C375.777 855.738 377.055 857.595 378.978 857.871L428.202 864.942C429.918 865.188 431.532 864.078 431.916 862.389L447.732 792.921C448.164 791.028 446.886 789.167 444.963 788.891L395.736 781.823C394.023 781.577 392.406 782.687 392.022 784.377" fill="#4A5E94"/>
<path d="M395.103 786.618L379.959 853.128L428.838 860.148L443.979 793.635L395.103 786.618Z" fill="white"/>
<path d="M438.923 797.685L397.388 791.718C396.917 791.652 396.479 791.979 396.413 792.45C396.344 792.921 396.672 793.356 397.143 793.425L438.677 799.389C439.148 799.455 439.586 799.128 439.652 798.66C439.721 798.189 439.394 797.751 438.923 797.685" fill="#4A5E94"/>
<path d="M437.523 803.97L395.988 798.006C395.517 797.937 395.079 798.264 395.01 798.735C394.944 799.206 395.271 799.644 395.742 799.71L437.277 805.674C437.748 805.743 438.186 805.416 438.252 804.945C438.321 804.474 437.994 804.039 437.523 803.97Z" fill="#4A5E94"/>
<path d="M420.235 809.181L394.279 805.455C393.808 805.386 393.37 805.713 393.301 806.184C393.235 806.655 393.562 807.093 394.033 807.159L419.989 810.888C420.46 810.954 420.898 810.627 420.964 810.156C421.033 809.685 420.706 809.25 420.235 809.181" fill="#4A5E94"/>
<path d="M418.39 814.584L392.434 810.858C391.963 810.789 391.525 811.116 391.456 811.587C391.39 812.058 391.717 812.496 392.188 812.562L418.144 816.291C418.615 816.357 419.053 816.03 419.119 815.559C419.188 815.088 418.861 814.653 418.39 814.584" fill="#4A5E94"/>
<path d="M416.544 819.99L390.588 816.261C390.117 816.192 389.679 816.519 389.61 816.99C389.544 817.461 389.871 817.899 390.342 817.965L416.298 821.694C416.769 821.76 417.207 821.436 417.273 820.965C417.342 820.494 417.015 820.056 416.544 819.99Z" fill="#4A5E94"/>
<path d="M426.062 849.849L400.103 846.122C399.632 846.053 399.197 846.381 399.128 846.852C399.062 847.323 399.389 847.761 399.86 847.827L425.816 851.555C426.287 851.621 426.722 851.295 426.791 850.824C426.857 850.353 426.53 849.918 426.062 849.849" fill="#4A5E94"/>
<path d="M373.081 854.676C375.868 853.362 377.941 850.932 379.924 848.571C381.877 846.243 383.833 843.915 385.789 841.587C386.563 840.666 387.37 839.664 387.457 838.467C384.178 838.2 382.066 842.46 378.787 842.712C380.314 837.312 382.507 832.101 385.3 827.235C385.981 826.047 386.725 824.664 386.239 823.383C382.696 824.736 379.711 827.256 377.131 830.034C375.316 831.987 373.663 834.09 372.193 836.316C367.867 842.865 365.185 850.38 363.361 858.015" fill="#EDA783"/>
<path d="M358.968 910.629L323.82 880.974C323.82 880.974 307.464 903.159 313.626 924.564C316.656 935.088 320.46 940.308 322.11 945.3C323.652 949.965 334.233 1016.01 333.444 1020.84C332.655 1025.66 326.973 1039.17 324.807 1053.38C322.197 1070.47 322.641 1126.14 320.619 1140.9C318.597 1155.66 332.229 1158.16 332.979 1153.17C339.387 1110.48 356.307 1043.97 358.677 1022.63C361.044 1001.29 360.084 962.211 358.968 910.629" fill="#EDA783"/>
<path d="M359.07 952.689L343.785 987.765C350.229 998.652 353.955 1011.5 354.45 1024.53C354.705 1031.29 354.108 1038.07 354.297 1044.85C354.309 1045.33 354.378 1045.84 354.501 1046.32C356.55 1036.28 358.077 1028.02 358.677 1022.63C360.348 1007.55 360.357 983.589 359.826 952.653L359.07 952.689Z" fill="#EDA783"/>
<path d="M335.349 1139.46C335.349 1139.46 332.076 1154.95 332.958 1156.92C333.837 1158.9 337.005 1164.63 340.248 1166.71C343.65 1168.88 351.186 1171.47 351.789 1172.41C352.392 1173.36 352.431 1174.73 351.354 1175.58C348.579 1177.76 343.761 1178.82 340.611 1178.3C330.393 1176.61 329.337 1172.09 323.385 1171.37C322.356 1171.24 320.451 1172.77 317.61 1171.31C314.766 1169.86 313.386 1167.23 313.629 1164.76C314.052 1160.49 316.449 1156.97 318.153 1153.82C319.857 1150.66 321.06 1136.22 321.06 1136.22" fill="#EDA783"/>
<path d="M352.151 1176.32C352.895 1175.05 353.084 1173.12 352.391 1172.65C351.431 1171.99 348.014 1169.73 346.031 1168.82C344.048 1167.91 340.907 1167.1 342.014 1167.7C343.121 1168.3 341.084 1170.53 339.227 1170.42C332.825 1170.03 328.1 1165.77 324.452 1164.86C319.187 1163.54 316.982 1157.33 316.751 1156.32C315.755 1156.95 313.439 1161.96 312.968 1163.53C312.545 1164.95 311.786 1167.55 312.188 1169.04C312.467 1170.06 313.088 1172.12 312.773 1174.29C312.773 1174.29 313.811 1175.08 316.559 1175.65C318.296 1176.01 320.633 1175.71 320.633 1175.71L321.086 1172.4C321.086 1172.4 322.52 1172.35 324.344 1172.72C326.165 1173.1 329.144 1174.84 329.318 1175.05C330.05 1175.92 330.635 1177.51 331.604 1178C334.163 1179.29 336.743 1179.9 340.004 1180.09C346.871 1180.49 350.879 1178.5 352.151 1176.32" fill="#303D60"/>
<path d="M406.968 1175.68C406.212 1174.84 398.07 1173.52 394.251 1171.92C390.612 1170.4 386.205 1165.52 385.347 1163.44C384.489 1161.37 384.684 1150.86 384.795 1146.45C385.557 1116.05 391.173 1041.78 391.986 1023.99C393.399 993.078 389.385 961.167 377.493 911.535L333.198 877.545C333.198 877.545 320.796 900.603 324.948 922.653C327.357 935.445 337.968 937.413 339.762 942.384C341.556 947.355 368.352 1027.51 368.352 1027.51C368.352 1027.51 363.141 1044.84 362.838 1063.83C362.58 1080.03 369.927 1128.92 371.292 1147.55C371.451 1151.18 372.078 1159.9 371.007 1162.67C369.693 1166.07 366.342 1170.06 366.51 1174.35C366.609 1176.83 368.406 1179.2 371.544 1180.18C374.682 1181.15 376.431 1179.34 377.511 1179.29C383.754 1179.03 385.485 1183.33 396.264 1183.33C399.591 1183.32 404.412 1181.49 406.968 1178.88C407.955 1177.87 407.721 1176.51 406.968 1175.68" fill="#EDA783"/>
<path d="M407.889 1179.48C408.477 1178.1 408.399 1176.16 407.619 1175.81C406.533 1175.32 402.687 1173.64 400.512 1173.07C398.34 1172.49 394.983 1172.21 396.21 1172.62C397.437 1173.03 395.649 1175.57 393.72 1175.76C387.057 1176.42 381.582 1172.98 377.688 1172.68C372.069 1172.24 370.008 1166.46 369.627 1165.5C368.688 1166.29 365.913 1171.61 365.652 1173.25C365.415 1174.72 364.998 1177.42 365.622 1178.82C366.057 1179.78 366.987 1181.72 366.969 1183.91C366.969 1183.91 368.151 1184.53 371.067 1184.64C372.912 1184.71 375.282 1184.03 375.282 1184.03V1180.69C375.282 1180.69 376.752 1180.4 378.687 1180.47C380.622 1180.55 383.01 1181.53 384.18 1182.41C385.095 1183.1 386.058 1184.26 387.138 1184.54C390.255 1185.32 392.496 1185.54 395.886 1185.2C403.029 1184.47 406.884 1181.84 407.889 1179.48" fill="#303D60"/>
<path d="M324.749 877.245C321.743 880.545 311.03 898.395 310.916 912.924C310.802 927.453 315.434 936.903 316.436 939.804C319.178 947.745 324.281 954.846 324.281 956.298C324.281 957.753 332.267 958.758 349.211 957.69C380.516 955.719 392.018 949.845 392.018 949.845C392.018 949.845 393.041 936.822 389.831 908.565C388.307 895.149 376.88 873.9 376.88 873.9" fill="#303D60"/>
<path d="M296.184 819.192C296.184 819.192 301.226 844.242 302.549 848.703C303.872 853.161 310.412 881.466 316.613 880.974C322.814 880.482 356.771 852.132 356.771 852.132L351.962 842.514L322.07 856.764C322.07 856.764 319.37 824.403 317.003 816.699" fill="#EDA783"/>
<path d="M307.742 834.615C310.907 845.796 317.393 857.586 319.331 866.256C319.721 867.999 340.418 860.472 340.466 852.699" fill="#EDA783"/>
<path d="M316.435 784.467C316.435 784.467 306.523 785.523 301.498 789.369C288.682 799.173 298.599 834.765 298.599 834.765C298.599 834.765 297.968 836.664 306.571 836.184C315.175 835.701 322.072 833.253 322.072 833.253L319.585 804.087" fill="#F27169"/>
<path d="M305.088 804.618C305.088 804.618 304.002 825.54 307.788 836.1C311.535 836.028 314.808 835.179 314.808 835.179L305.088 804.618" fill="#D9655E"/>
<path d="M363.803 718.796C369.776 726.542 368.594 737.432 367.121 747.098C366.377 751.988 365.633 756.875 364.886 761.762C364.532 764.087 364.061 766.622 362.252 768.122C360.428 769.631 357.821 769.607 355.454 769.505C355.478 773.549 355.502 777.596 355.526 781.64C348.605 781.808 341.681 781.838 334.76 781.724C334.757 778.892 334.139 776.06 332.963 773.483C329.579 773.417 327.314 770.021 325.991 766.907C324.461 763.313 323.348 759.557 322.271 755.801C320.846 750.818 319.469 745.757 319.337 740.576C319.208 735.392 320.438 730.007 323.729 726.002C325.976 723.272 329.033 721.334 332.168 719.699C336.461 717.458 341.615 715.691 346.043 717.653" fill="#EDA783"/>
<path d="M356.642 755.688C355.823 751.62 355.879 749.325 357.211 746.619C357.655 745.719 358.238 744.873 359.033 744.315C360.11 743.559 361.537 743.412 362.731 743.931C363.508 744.27 364.151 744.903 364.589 745.665C366.002 740.202 366.299 734.379 365.891 728.706C365.243 719.709 359.819 712.755 351.902 709.503C337.241 703.479 316.174 709.431 310.219 723.822C305.722 734.691 308.003 750.381 316.613 759.492C324.236 767.559 335.198 768.744 345.317 767.082C350.495 766.233 358.483 766.743 361.162 759.702C361.369 759.156 360.904 758.616 360.355 758.658C358.252 758.82 356.792 756.441 356.642 755.688" fill="#303D60"/>
<path d="M357.766 736.551C358.312 737.406 358.183 738.552 358.693 739.425C359.554 740.895 360.697 741.423 362.239 742.14C364.726 743.292 364.144 746.916 364.072 748.536C365.95 747.288 366.253 743.892 366.709 742.164C367.216 740.226 367.543 738.24 368.107 736.317C368.656 734.445 369.607 732.684 369.784 730.716C370.39 723.918 366.127 715.929 360.973 712.113C357.22 709.335 351.493 709.449 347.254 712.275C345.469 713.463 344.125 715.26 343.336 717.255C342.997 718.113 342.763 719.109 343.183 719.928" fill="#303D60"/>
<path d="M324.449 784.557C324.8 782.187 325.442 779.424 327.647 778.488C328.262 778.23 328.934 778.149 329.594 778.077C336.347 777.327 343.145 777.006 349.94 777.117C352.748 777.162 355.658 777.303 358.172 778.56C362.114 780.531 364.28 784.779 366.185 788.754" fill="#D9655E"/>
<path d="M381.656 871.422C380.711 870.027 378.53 868.356 377.75 866.82C375.872 863.13 374.231 847.602 374.879 843.636C375.569 839.382 379.334 837.096 381.032 827.631C383.219 815.439 378.218 805.962 375.425 801.903C371.474 796.164 373.817 796.197 372.464 789.165C372.221 787.899 371.936 786.546 371.069 785.664C370.217 784.794 364.328 782.1 363.17 781.923C352.19 780.222 345.737 781.551 334.637 782.037C329.144 782.277 323.66 782.916 318.269 784.107C312.302 785.421 307.103 787.005 305.876 795.102C303.98 807.627 305.576 820.287 309.383 832.167C311.906 840.039 326.972 867.276 323.24 872.547C322.388 873.753 320.252 876.042 319.994 877.545C319.049 883.05 331.487 884.985 336.809 885.423C344.921 886.089 354.227 885.642 362.357 885.261C368.516 884.973 381.989 882.825 382.946 875.214C383.132 873.72 382.394 872.514 381.656 871.422" fill="#F27169"/>
<path d="M379.312 829.986C379.312 832.2 378.076 835.17 377.674 836.337C376.129 837.129 370.003 838.449 366.487 836.841C365.716 829.524 361.432 815.439 361.432 815.439C361.432 815.439 379.309 827.937 379.312 829.986" fill="#D9655E"/>
<path d="M371.443 824.88C371.443 824.88 391.726 873.9 400.525 873.9C406.927 873.9 422.623 828.648 422.623 828.648L412.705 823.953L401.647 842.904L390.448 807.561" fill="#EDA783"/>
<path d="M410.738 827.327C410.738 827.327 414.026 822.149 413.786 818.477C413.693 817.076 412.862 810.413 413.558 809.102C414.251 807.791 415.919 803.504 416.873 802.67C417.824 801.836 421.349 800.498 422.21 801.092C423.071 801.689 424.145 798.95 425.573 799.187C427.004 799.424 428.192 800.615 428.192 801.926C428.192 803.237 430.1 803.474 430.337 804.428C430.577 805.379 430.457 806.213 430.814 806.93C431.171 807.644 432.224 807.29 432.602 809.072C432.944 810.704 432.482 810.86 432.602 811.694C432.719 812.528 433.433 812.45 433.196 814.037C432.959 815.624 431.87 817.685 430.919 819.47C429.965 821.258 427.997 823.493 425.387 825.071C424.097 825.851 423.392 827.216 422.159 829.526" fill="#EDA783"/>
<path d="M416.19 789.45C415.938 789.063 415.248 788.409 414.438 788.979C413.631 789.549 413.874 790.53 414.051 790.926C414.225 791.319 420.048 804.494 420.048 804.494C420.048 804.494 420.534 805.052 421.461 804.236C422.466 803.348 422.145 802.905 422.145 802.905C422.145 802.905 416.439 789.84 416.19 789.45" fill="#303D60"/>
<path d="M422.506 802.035C421.363 804.072 420.04 804.723 418.849 805.845C417.916 806.724 418.033 807.291 417.004 808.191C418.807 808.056 418.498 806.991 420.835 805.305C421.918 804.525 423.04 803.679 423.25 802.347C423.325 801.891 422.782 801.645 422.506 802.035" fill="#EDA783"/>
<path d="M352.785 781.167C358.068 781.443 373.446 778.743 381.993 787.683C389.151 795.171 393.252 814.803 396.135 822.765C388.962 830.076 382.053 835.971 371.187 833.598C370.776 833.292 365.385 816.324 361.461 814.815" fill="#F27169"/>
<path d="M392.041 936.822C392.041 936.822 395.53 1020.68 394.894 1026.8C394.258 1032.92 387.454 1148.7 387.454 1148.7C387.454 1148.7 373.483 1151.15 365.116 1148.7C365.116 1148.7 354.322 1058.53 365.116 1030.43L360.319 1003.51C360.319 1003.51 361.033 1023.54 360.319 1027.61C359.602 1031.69 338.011 1145.84 338.011 1145.84C338.011 1145.84 323.728 1145.47 317.203 1139.74C317.203 1139.74 315.169 1060.43 330.049 1027.07L316.432 939.804L324.277 917.598L392.041 936.822" fill="#303D60"/>
<path d="M360.321 1003.51C358.326 990.615 346.017 944.868 345.495 943.767C338.766 938.553 332.619 933.957 330.381 929.61C334.056 940.641 341.136 941.211 343.785 946.92C350.328 961.014 345.33 957.906 360.609 1005.13" fill="#303D60"/>
<path d="M300.234 780.609C299.919 785.072 300.831 789.527 300.903 794C300.975 798.473 300.015 803.297 296.73 806.333C293.445 809.369 287.35 809.489 285.016 805.673C287.378 810.605 292.462 813.923 297.843 814.901C303.222 815.882 308.835 814.718 313.806 812.441C327.015 806.387 335.814 792.542 335.406 777.977C335.07 766.005 325.98 754.434 313.278 760.728C305.835 764.418 300.816 772.389 300.234 780.609" fill="#303D60"/>
</svg>
